SplineFontDB: 3.0
FontName: Shabnam
FullName: Shabnam
FamilyName: Shabnam
Weight: Regular
Copyright: Copyright (c) 2003 by Bitstream, Inc. All Rights Reserved.\nDejaVu changes are in public domain\nChanges by Saber Rastikerdar are in public domain.\nNon-Arabic(Latin) glyphs and data in extended version are imported from Roboto font under the Apache License, Version 2.0.
Version: 5.0.1
ItalicAngle: 0
UnderlinePosition: -500
UnderlineWidth: 100
Ascent: 1638
Descent: 410
InvalidEm: 0
LayerCount: 2
Layer: 0 0 "Back" 1
Layer: 1 0 "Fore" 0
PreferredKerning: 4
XUID: [1021 502 1027637223 7653432]
UniqueID: 4088673
UseUniqueID: 1
FSType: 0
OS2Version: 1
OS2_WeightWidthSlopeOnly: 0
OS2_UseTypoMetrics: 1
CreationTime: 1431850356
ModificationTime: 1573911076
PfmFamily: 33
TTFWeight: 400
TTFWidth: 5
LineGap: 0
VLineGap: 0
Panose: 2 11 6 3 3 8 4 2 2 4
OS2TypoAscent: 1900
OS2TypoAOffset: 0
OS2TypoDescent: -900
OS2TypoDOffset: 0
OS2TypoLinegap: 0
OS2WinAscent: 1900
OS2WinAOffset: 0
OS2WinDescent: 900
OS2WinDOffset: 0
HheadAscent: 1900
HheadAOffset: 0
HheadDescent: -900
HheadDOffset: 0
OS2SubXSize: 1331
OS2SubYSize: 1433
OS2SubXOff: 0
OS2SubYOff: 286
OS2SupXSize: 1331
OS2SupYSize: 1433
OS2SupXOff: 0
OS2SupYOff: 983
OS2StrikeYSize: 102
OS2StrikeYPos: 530
OS2CapHeight: 1638
OS2XHeight: 1082
OS2Vendor: '    '
OS2CodePages: 00000041.20080000
OS2UnicodeRanges: 80002003.80000000.00000008.00000000
Lookup: 1 9 0 "Single Substitution 1" { "Single Substitution 1 subtable"  } []
Lookup: 1 9 0 "'fina' Terminal Forms in Arabic lookup 9" { "'fina' Terminal Forms in Arabic lookup 9 subtable"  } ['fina' ('DFLT' <'dflt' > 'arab' <'FAR ' 'KUR ' 'URD ' 'dflt' > ) ]
Lookup: 1 9 0 "'medi' Medial Forms in Arabic lookup 11" { "'medi' Medial Forms in Arabic lookup 11 subtable"  } ['medi' ('DFLT' <'dflt' > 'arab' <'FAR ' 'KUR ' 'URD ' 'dflt' > ) ]

StartChar: exclam
Encoding: 33 33 1
GlifName: exclam
Width: 632
VWidth: 2762
GlyphClass: 2
Flags: HW
LayerCount: 2
Fore
SplineSet
183 134 m 0
 183 207 243 268 316 268 c 0
 389 268 449 207 449 134 c 0
 449 61 389 1 316 1 c 0
 242 1 183 58 183 134 c 0
221 1326 m 5
 415 1326 l 5
 400 432 l 1
 237 432 l 1
 221 1326 l 5
EndSplineSet
EndChar

StartChar: period
Encoding: 46 46 2
GlifName: period
Width: 632
VWidth: 2762
GlyphClass: 2
Flags: HW
LayerCount: 2
Fore
SplineSet
183 134 m 4
 183 207 243 268 316 268 c 4
 389 268 449 207 449 134 c 4
 449 61 389 1 316 1 c 4
 242 1 183 58 183 134 c 4
EndSplineSet
EndChar

StartChar: colon
Encoding: 58 58 3
GlifName: colon
Width: 632
VWidth: 2762
GlyphClass: 2
Flags: HW
LayerCount: 2
Fore
SplineSet
183 754 m 4
 183 827 243 888 316 888 c 4
 389 888 449 827 449 754 c 4
 449 681 389 621 316 621 c 4
 242 621 183 678 183 754 c 4
183 134 m 4
 183 207 243 268 316 268 c 4
 389 268 449 207 449 134 c 4
 449 61 389 1 316 1 c 4
 242 1 183 58 183 134 c 4
EndSplineSet
EndChar

StartChar: uni060C
Encoding: 1548 1548 5
GlifName: afii57388
Width: 669
VWidth: 2770
GlyphClass: 2
Flags: HW
LayerCount: 2
Fore
SplineSet
503 572 m 1
 403.264648438 480.813476562 341 401.719726562 341 276 c 1
 442.288085938 276 476 229.419921875 476 142 c 0
 476 55 429 0 341 0 c 4
 229 0 183 68 183 174 c 0
 183 367 283 518 429 631 c 1
 503 572 l 1
EndSplineSet
EndChar

StartChar: uni0615
Encoding: 1557 1557 6
GlifName: uni0615
Width: -29
VWidth: 2712
GlyphClass: 4
Flags: HW
AnchorPoint: "Anchor-10" 658 1622 mark 0
AnchorPoint: "Anchor-9" 658 1622 mark 0
AnchorPoint: "Anchor-1" 672 2446 basemark 0
AnchorPoint: "Anchor-1" 658 1622 mark 0
LayerCount: 2
Fore
SplineSet
915 1918 m 4
 915 1969 889 1995 837 1995 c 4
 764 1995 661 1922 536 1786 c 5
 678 1786 l 6
 788 1786 915 1821 915 1918 c 4
537 1887 m 5
 646 2011 748 2076 841 2076 c 4
 940 2076 989 2027 989 1927 c 4
 989 1786 883 1714 668 1714 c 6
 357 1714 l 5
 357 1786 l 5
 465 1786 l 5
 465 2318 l 5
 538 2317 l 5
 537 1887 l 5
EndSplineSet
EndChar

StartChar: uni061B
Encoding: 1563 1563 7
GlifName: uni061B_
Width: 669
VWidth: 2770
GlyphClass: 2
Flags: HW
LayerCount: 2
Fore
SplineSet
211 134 m 0
 211 207 271 268 344 268 c 0
 417 268 477 207 477 134 c 0
 477 61 417 1 344 1 c 0
 270 1 211 58 211 134 c 0
503 1005 m 5
 403 914 341 835 341 709 c 5
 442 709 476 662 476 575 c 4
 476 488 429 433 341 433 c 4
 229 433 183 501 183 607 c 4
 183 800 283 951 429 1064 c 5
 503 1005 l 5
EndSplineSet
EndChar

StartChar: uni061F
Encoding: 1567 1567 8
GlifName: uni061F_
Width: 924
VWidth: 2762
GlyphClass: 2
Flags: HW
LayerCount: 2
Fore
SplineSet
392 134 m 0
 392 207 452 268 525 268 c 0
 598 268 658 207 658 134 c 0
 658 61 598 1 525 1 c 0
 451 1 392 58 392 134 c 0
99 981 m 4
 99 1195 273 1336 469 1336 c 4
 720 1336 825 1203 826 941 c 5
 670 941 l 5
 669 1078 618 1156 480 1156 c 4
 360 1156 280 1090.00390625 280 972 c 4
 280 786.930664062 616.722840761 781.019567324 618 432 c 5
 433 432 l 1
 431.394028595 760.41211112 99 691.786132812 99 981 c 4
EndSplineSet
EndChar

StartChar: uni0621
Encoding: 1569 1569 9
GlifName: uni0621
Width: 807
VWidth: 2551
GlyphClass: 2
Flags: HW
AnchorPoint: "Anchor-7" 437 -54 basechar 0
AnchorPoint: "Anchor-10" 394 1070 basechar 0
LayerCount: 2
Fore
SplineSet
445 771 m 0
 507.595703125 771 570.138671875 756.561523438 615 736 c 1
 615 589 l 1
 565 606 505 615 454 615 c 0
 343.751953125 615 275 562.260742188 275 474 c 0
 275 350.80078125 406.139556252 318 498 318 c 0
 547 318 603 334 667 367 c 1
 713 213 l 1
 168 5 l 1
 109 144 l 1
 318 223 l 5
 190 261 114 337.099609375 114 484 c 0
 114 650.728515625 242.862304688 771 445 771 c 0
EndSplineSet
EndChar

StartChar: uni0627
Encoding: 1575 1575 15
GlifName: uni0627
Width: 459
VWidth: 2551
GlyphClass: 2
Flags: HW
AnchorPoint: "Anchor-10" 225 1463 basechar 0
AnchorPoint: "Anchor-7" 228 -211 basechar 0
LayerCount: 2
Fore
SplineSet
150 1334 m 5
 316 1334 l 5
 316 1 l 1
 150 1 l 1
 150 1334 l 5
EndSplineSet
Substitution2: "'fina' Terminal Forms in Arabic lookup 9 subtable" uniFE8E
EndChar

StartChar: uni062D
Encoding: 1581 1581 21
GlifName: uni062D_
Width: 1314
VWidth: 2551
GlyphClass: 2
Flags: HW
AnchorPoint: "Anchor-10" 657.5 1032.5 basechar 0
AnchorPoint: "Anchor-7" 743.334 -875.653 basechar 0
LayerCount: 2
Fore
SplineSet
927 462 m 1
 795 535 l 18
 709 582 631 607 554 607 c 0
 466 607 403 576 324 514 c 2
 253 457 l 1
 138 586 l 1
 199 638 l 2
 319 739 422 790 548 790 c 0
 642 790 737 762 834 706 c 2
 1023 597 l 2
 1091 558 1161 534 1213 523 c 1
 1213 341 l 1
 833.78469161 290.437958881 272 180.171875 272 -192 c 0
 272 -417 448 -519 802 -519 c 2
 1214 -519 l 1
 1214 -695 l 1
 790 -695 l 2
 376.898929133 -695 100 -540.443657465 100 -195 c 0
 100 153.554530588 378.858398438 370.643554688 927 462 c 1
EndSplineSet
Substitution2: "'fina' Terminal Forms in Arabic lookup 9 subtable" uniFEA2
Substitution2: "'medi' Medial Forms in Arabic lookup 11 subtable" uniFEA4
Substitution2: "'init' Initial Forms in Arabic lookup 13 subtable" uniFEA3
EndChar

StartChar: uni062F
Encoding: 1583 1583 23
GlifName: uni062F_
Width: 1004
VWidth: 2551
GlyphClass: 2
Flags: HW
AnchorPoint: "Anchor-10" 448 1166 basechar 0
AnchorPoint: "Anchor-7" 424 -225 basechar 0
LayerCount: 2
Fore
SplineSet
464 0 m 6
 100 0 l 5
 100 180 l 5
 465 180 l 6
 654 180 729 227 729 300 c 0
 729 351 693 416 632 486 c 2
 352 809 l 5
 473 945 l 5
 771 597 l 2
 858 495 904 388 904 294 c 0
 904 128 764 0 464 0 c 6
EndSplineSet
Substitution2: "'fina' Terminal Forms in Arabic lookup 9 subtable" uniFEAA
EndChar

StartChar: uni0631
Encoding: 1585 1585 25
GlifName: uni0631
Width: 756
VWidth: 2551
GlyphClass: 2
Flags: HW
AnchorPoint: "Anchor-7" 297 -619 basechar 0
AnchorPoint: "Anchor-10" 511 953 basechar 0
LayerCount: 2
Fore
SplineSet
84 -294 m 2
 343 -294 482 -166 482 71 c 2
 482 605 l 1
 656 606 l 1
 656 71 l 2
 656 -269 459 -465 86 -468 c 2
 14 -469 l 1
 14 -294 l 1
 84 -294 l 2
EndSplineSet
PairPos2: "'kern' Horizontal Kerning lookup 15-2" uniFE91 dx=-60 dy=0 dh=-60 dv=0 dx=0 dy=0 dh=0 dv=0
PairPos2: "'kern' Horizontal Kerning lookup 15-2" uniFB7C dx=-120 dy=0 dh=-120 dv=0 dx=0 dy=0 dh=0 dv=0
PairPos2: "'kern' Horizontal Kerning lookup 15-1" uniFEE7 dx=-178 dy=0 dh=-178 dv=0 dx=0 dy=0 dh=0 dv=0
PairPos2: "'kern' Horizontal Kerning lookup 15-2" uniFE8B dx=-178 dy=0 dh=-178 dv=0 dx=0 dy=0 dh=0 dv=0
PairPos2: "'kern' Horizontal Kerning lookup 15-2" uni0640 dx=-178 dy=0 dh=-178 dv=0 dx=0 dy=0 dh=0 dv=0
PairPos2: "'kern' Horizontal Kerning lookup 15-2" uni067E dx=-178 dy=0 dh=-178 dv=0 dx=0 dy=0 dh=0 dv=0
PairPos2: "'kern' Horizontal Kerning lookup 15-2" uni06AF dx=-180 dy=0 dh=-180 dv=0 dx=0 dy=0 dh=0 dv=0
PairPos2: "'kern' Horizontal Kerning lookup 15-2" uniFB92 dx=-180 dy=0 dh=-180 dv=0 dx=0 dy=0 dh=0 dv=0
PairPos2: "'kern' Horizontal Kerning lookup 15-2" uniFB94 dx=-180 dy=0 dh=-180 dv=0 dx=0 dy=0 dh=0 dv=0
PairPos2: "'kern' Horizontal Kerning lookup 15-2" uni0621 dx=-178 dy=0 dh=-178 dv=0 dx=0 dy=0 dh=0 dv=0
PairPos2: "'kern' Horizontal Kerning lookup 15-2" uni0622 dx=-163 dy=0 dh=-163 dv=0 dx=0 dy=0 dh=0 dv=0
PairPos2: "'kern' Horizontal Kerning lookup 15-2" uni0623 dx=-163 dy=0 dh=-163 dv=0 dx=0 dy=0 dh=0 dv=0
PairPos2: "'kern' Horizontal Kerning lookup 15-2" uni0627 dx=-163 dy=0 dh=-163 dv=0 dx=0 dy=0 dh=0 dv=0
PairPos2: "'kern' Horizontal Kerning lookup 15-2" uni0628 dx=-178 dy=0 dh=-178 dv=0 dx=0 dy=0 dh=0 dv=0
PairPos2: "'kern' Horizontal Kerning lookup 15-2" uni0629 dx=-178 dy=0 dh=-178 dv=0 dx=0 dy=0 dh=0 dv=0
PairPos2: "'kern' Horizontal Kerning lookup 15-2" uni062A dx=-178 dy=0 dh=-178 dv=0 dx=0 dy=0 dh=0 dv=0
PairPos2: "'kern' Horizontal Kerning lookup 15-2" uniFE97 dx=-178 dy=0 dh=-178 dv=0 dx=0 dy=0 dh=0 dv=0
PairPos2: "'kern' Horizontal Kerning lookup 15-2" uni062B dx=-178 dy=0 dh=-178 dv=0 dx=0 dy=0 dh=0 dv=0
PairPos2: "'kern' Horizontal Kerning lookup 15-2" uniFE9B dx=-178 dy=0 dh=-178 dv=0 dx=0 dy=0 dh=0 dv=0
PairPos2: "'kern' Horizontal Kerning lookup 15-2" uniFE9F dx=-178 dy=0 dh=-178 dv=0 dx=0 dy=0 dh=0 dv=0
PairPos2: "'kern' Horizontal Kerning lookup 15-2" uniFEA3 dx=-178 dy=0 dh=-178 dv=0 dx=0 dy=0 dh=0 dv=0
PairPos2: "'kern' Horizontal Kerning lookup 15-2" uniFEA7 dx=-178 dy=0 dh=-178 dv=0 dx=0 dy=0 dh=0 dv=0
PairPos2: "'kern' Horizontal Kerning lookup 15-2" uni062F dx=-178 dy=0 dh=-178 dv=0 dx=0 dy=0 dh=0 dv=0
PairPos2: "'kern' Horizontal Kerning lookup 15-2" uni0630 dx=-178 dy=0 dh=-178 dv=0 dx=0 dy=0 dh=0 dv=0
PairPos2: "'kern' Horizontal Kerning lookup 15-2" uni0633 dx=-178 dy=0 dh=-178 dv=0 dx=0 dy=0 dh=0 dv=0
PairPos2: "'kern' Horizontal Kerning lookup 15-2" uniFEB3 dx=-178 dy=0 dh=-178 dv=0 dx=0 dy=0 dh=0 dv=0
PairPos2: "'kern' Horizontal Kerning lookup 15-2" uni0634 dx=-178 dy=0 dh=-178 dv=0 dx=0 dy=0 dh=0 dv=0
PairPos2: "'kern' Horizontal Kerning lookup 15-2" uniFEB7 dx=-178 dy=0 dh=-178 dv=0 dx=0 dy=0 dh=0 dv=0
PairPos2: "'kern' Horizontal Kerning lookup 15-2" uni0635 dx=-178 dy=0 dh=-178 dv=0 dx=0 dy=0 dh=0 dv=0
PairPos2: "'kern' Horizontal Kerning lookup 15-2" uniFEBB dx=-178 dy=0 dh=-178 dv=0 dx=0 dy=0 dh=0 dv=0
PairPos2: "'kern' Horizontal Kerning lookup 15-2" uni0636 dx=-178 dy=0 dh=-178 dv=0 dx=0 dy=0 dh=0 dv=0
PairPos2: "'kern' Horizontal Kerning lookup 15-2" uniFEBF dx=-178 dy=0 dh=-178 dv=0 dx=0 dy=0 dh=0 dv=0
PairPos2: "'kern' Horizontal Kerning lookup 15-2" uni0637 dx=-178 dy=0 dh=-178 dv=0 dx=0 dy=0 dh=0 dv=0
PairPos2: "'kern' Horizontal Kerning lookup 15-2" uniFEC3 dx=-178 dy=0 dh=-178 dv=0 dx=0 dy=0 dh=0 dv=0
PairPos2: "'kern' Horizontal Kerning lookup 15-2" uni0638 dx=-178 dy=0 dh=-178 dv=0 dx=0 dy=0 dh=0 dv=0
PairPos2: "'kern' Horizontal Kerning lookup 15-2" uniFEC7 dx=-178 dy=0 dh=-178 dv=0 dx=0 dy=0 dh=0 dv=0
PairPos2: "'kern' Horizontal Kerning lookup 15-2" uniFECB dx=-178 dy=0 dh=-178 dv=0 dx=0 dy=0 dh=0 dv=0
PairPos2: "'kern' Horizontal Kerning lookup 15-2" uniFECF dx=-178 dy=0 dh=-178 dv=0 dx=0 dy=0 dh=0 dv=0
PairPos2: "'kern' Horizontal Kerning lookup 15-2" uni0641 dx=-178 dy=0 dh=-178 dv=0 dx=0 dy=0 dh=0 dv=0
PairPos2: "'kern' Horizontal Kerning lookup 15-2" uniFED3 dx=-178 dy=0 dh=-178 dv=0 dx=0 dy=0 dh=0 dv=0
PairPos2: "'kern' Horizontal Kerning lookup 15-2" uniFED7 dx=-178 dy=0 dh=-178 dv=0 dx=0 dy=0 dh=0 dv=0
PairPos2: "'kern' Horizontal Kerning lookup 15-2" uni0643 dx=-143 dy=0 dh=-143 dv=0 dx=0 dy=0 dh=0 dv=0
PairPos2: "'kern' Horizontal Kerning lookup 15-2" uniFEDB dx=-180 dy=0 dh=-180 dv=0 dx=0 dy=0 dh=0 dv=0
PairPos2: "'kern' Horizontal Kerning lookup 15-2" uni0644 dx=-60 dy=0 dh=-60 dv=0 dx=0 dy=0 dh=0 dv=0
PairPos2: "'kern' Horizontal Kerning lookup 15-2" uniFEDF dx=-143 dy=0 dh=-143 dv=0 dx=0 dy=0 dh=0 dv=0
PairPos2: "'kern' Horizontal Kerning lookup 15-2" uniFEFB dx=-143 dy=0 dh=-143 dv=0 dx=0 dy=0 dh=0 dv=0
PairPos2: "'kern' Horizontal Kerning lookup 15-2" uni0645 dx=-178 dy=0 dh=-178 dv=0 dx=0 dy=0 dh=0 dv=0
PairPos2: "'kern' Horizontal Kerning lookup 15-2" uniFEE3 dx=-178 dy=0 dh=-178 dv=0 dx=0 dy=0 dh=0 dv=0
PairPos2: "'kern' Horizontal Kerning lookup 15-2" uni0647 dx=-178 dy=0 dh=-178 dv=0 dx=0 dy=0 dh=0 dv=0
PairPos2: "'kern' Horizontal Kerning lookup 15-2" uniFEEB dx=-178 dy=0 dh=-178 dv=0 dx=0 dy=0 dh=0 dv=0
PairPos2: "'kern' Horizontal Kerning lookup 15-2" uni06A9 dx=-180 dy=0 dh=-180 dv=0 dx=0 dy=0 dh=0 dv=0
PairPos2: "'kern' Horizontal Kerning lookup 15-2" uniFB8E dx=-180 dy=0 dh=-180 dv=0 dx=0 dy=0 dh=0 dv=0
PairPos2: "'kern' Horizontal Kerning lookup 15-2" uniFB90 dx=-180 dy=0 dh=-180 dv=0 dx=0 dy=0 dh=0 dv=0
PairPos2: "'kern' Horizontal Kerning lookup 15-2" uni0631 dx=-30 dy=0 dh=-30 dv=0 dx=0 dy=0 dh=0 dv=0
PairPos2: "'kern' Horizontal Kerning lookup 15-2" uni0632 dx=-30 dy=0 dh=-30 dv=0 dx=0 dy=0 dh=0 dv=0
PairPos2: "'kern' Horizontal Kerning lookup 15-2" uni0624 dx=-30 dy=0 dh=-30 dv=0 dx=0 dy=0 dh=0 dv=0
PairPos2: "'kern' Horizontal Kerning lookup 15-2" uni0648 dx=-30 dy=0 dh=-30 dv=0 dx=0 dy=0 dh=0 dv=0
PairPos2: "'kern' Horizontal Kerning lookup 15-2" uni0698 dx=-40 dy=0 dh=-40 dv=0 dx=0 dy=0 dh=0 dv=0
PairPos2: "'kern' Horizontal Kerning lookup 15-5" uni06C0 dx=-178 dy=0 dh=-178 dv=0 dx=0 dy=0 dh=0 dv=0
Substitution2: "'fina' Terminal Forms in Arabic lookup 9 subtable" uniFEAE
EndChar

StartChar: uni0633
Encoding: 1587 1587 27
GlifName: uni0633
Width: 2479
VWidth: 2551
GlyphClass: 2
Flags: HW
AnchorPoint: "Anchor-7" 688 -668 basechar 0
AnchorPoint: "Anchor-10" 1775 1064 basechar 0
LayerCount: 2
Fore
SplineSet
1337 397 m 2
 1337 250.379112201 1402.33014052 179.97807634 1527.1994098 179.97807634 c 0
 1643.00407231 179.97807634 1705 245.890625 1705 373 c 2
 1706 634 l 1
 1876 634 l 1
 1877 375 l 2
 1878.00488281 245.375 1938.65039062 180.98828125 2058.27539062 180.98828125 c 0
 2155.75097656 180.98828125 2204 243.984375 2204 371 c 2
 2204 666 l 1
 2379 666 l 1
 2379 363 l 2
 2379 131 2264 0 2064 0 c 0
 1933.45019531 0 1852.81347656 47.3740234375 1796 141 c 1
 1741.93457031 44.7373046875 1649.46289062 0 1521 0 c 0
 1440.40527344 0.958984375 1369.04936461 26.2675138471 1325 85 c 1
 1325 52 l 2
 1325 -283 1130 -449 744 -449 c 2
 693 -449 l 2
 299 -449 100 -267 100 101 c 2
 100 442 l 1
 274 442 l 1
 274 102 l 2
 274 -146 415 -270 693 -270 c 2
 744 -270 l 2
 1022 -270 1161 -164 1161 47 c 2
 1161 631 l 1
 1337 631 l 1
 1337 397 l 2
EndSplineSet
Substitution2: "'fina' Terminal Forms in Arabic lookup 9 subtable" uniFEB2
Substitution2: "'medi' Medial Forms in Arabic lookup 11 subtable" uniFEB4
Substitution2: "'init' Initial Forms in Arabic lookup 13 subtable" uniFEB3
EndChar

StartChar: uni0635
Encoding: 1589 1589 29
GlifName: uni0635
Width: 2505
VWidth: 2551
GlyphClass: 2
Flags: HW
AnchorPoint: "Anchor-10" 1977 1148 basechar 0
AnchorPoint: "Anchor-7" 688 -668 basechar 0
LayerCount: 2
Fore
SplineSet
1337 417 m 2
 1337 281.770211554 1380.75384672 214.623076639 1444 203 c 1
 1609.54105464 574.082109278 1767.68972107 775 2015 775 c 0
 2233.33698807 775 2405 589.532226562 2405 367 c 0
 2405 124.173828125 2222.85506873 0 1958 0 c 2
 1618 0 l 2
 1461 0 1364 29 1325 87 c 1
 1325 52 l 2
 1325 -283 1130 -449 744 -449 c 2
 693 -449 l 2
 299 -449 100 -267 100 101 c 2
 100 442 l 1
 274 442 l 1
 274 102 l 2
 274 -146 415 -270 693 -270 c 2
 744 -270 l 2
 1022 -270 1161 -164 1161 47 c 2
 1161 631 l 1
 1337 631 l 1
 1337 417 l 2
2230 347 m 0
 2230 487.476961489 2126.93907578 592 2004 592 c 0
 1870 592 1741 454 1617 180 c 1
 1978 180 l 2
 2127.94628906 180 2230 224.792192864 2230 347 c 0
EndSplineSet
Substitution2: "'fina' Terminal Forms in Arabic lookup 9 subtable" uniFEBA
Substitution2: "'medi' Medial Forms in Arabic lookup 11 subtable" uniFEBC
Substitution2: "'init' Initial Forms in Arabic lookup 13 subtable" uniFEBB
EndChar

StartChar: uni0637
Encoding: 1591 1591 31
GlifName: uni0637
Width: 1358
VWidth: 2551
GlyphClass: 2
Flags: HW
AnchorPoint: "Anchor-7" 606 -238 basechar 0
AnchorPoint: "Anchor-10" 447 1463 basechar 0
LayerCount: 2
Fore
SplineSet
1083 347 m 0
 1083 487 980 592 857 592 c 0
 723 592 594 454 470 180 c 1
 831 180 l 2
 981 180 1083 225 1083 347 c 0
369 346 m 1
 369 1335 l 1
 535 1335 l 1
 535 599 l 1
 632 708 741 775 868 775 c 0
 1086 775 1258 590 1258 367 c 0
 1258 124 1076 0 811 0 c 2
 100 0 l 1
 100 180 l 1
 289 180 l 1
 315 243 342 292 369 346 c 1
EndSplineSet
Substitution2: "'fina' Terminal Forms in Arabic lookup 9 subtable" uniFEC2
Substitution2: "'medi' Medial Forms in Arabic lookup 11 subtable" uniFEC4
Substitution2: "'init' Initial Forms in Arabic lookup 13 subtable" uniFEC3
EndChar

StartChar: uni0639
Encoding: 1593 1593 33
GlifName: uni0639
Width: 1244
VWidth: 2551
GlyphClass: 2
Flags: HW
AnchorPoint: "Anchor-7" 743.334 -875.653 basechar 0
AnchorPoint: "Anchor-10" 739 1223 basechar 0
LayerCount: 2
Fore
SplineSet
100 -197 m 0
 100 45 234 225 499 313 c 1
 497 315 l 1
 410 391 366 487 366 583 c 0
 368 814 529 968 761 968 c 0
 885 968 986 918 1067 818 c 1
 995 686 l 1
 927 751 850 783 765 783 c 0
 646 783 541 714 541 585 c 0
 541 505 594 425 698 366 c 1
 699 366 l 1
 772 372 852 374 939 374 c 2
 1107 374 l 1
 1107 193 l 1
 923 193 l 2
 489 193 272 54 272 -193 c 0
 272 -418 449 -519 802 -519 c 2
 1144 -519 l 1
 1144 -695 l 1
 790 -695 l 2
 382 -695 100 -540 100 -197 c 0
EndSplineSet
Substitution2: "'fina' Terminal Forms in Arabic lookup 9 subtable" uniFECA
Substitution2: "'medi' Medial Forms in Arabic lookup 11 subtable" uniFECC
Substitution2: "'init' Initial Forms in Arabic lookup 13 subtable" uniFECB
EndChar

StartChar: uni0640
Encoding: 1600 1600 35
GlifName: afii57440
Width: 250
VWidth: 2551
GlyphClass: 2
Flags: HW
AnchorPoint: "Anchor-10" 118 885 basechar 0
AnchorPoint: "Anchor-7" 130 -172 basechar 0
LayerCount: 2
Fore
SplineSet
255 180 m 2
 270 180 280 152 280 97 c 2
 280 86 l 2
 280 29 270 0 255 0 c 2
 -5 0 l 2
 -20 0 -30 29 -30 86 c 2
 -30 97 l 2
 -30 152 -20 180 -5 180 c 2
 255 180 l 2
EndSplineSet
EndChar

StartChar: uni0643
Encoding: 1603 1603 38
GlifName: uni0643
Width: 1889
VWidth: 2551
GlyphClass: 2
Flags: HW
AnchorPoint: "Anchor-7" 850 -233 basechar 0
AnchorPoint: "Anchor-10" 948.836 1275.23 basechar 0
LayerCount: 2
Fore
SplineSet
860.8359375 619.23046875 m 0
 950.5703125 619.23046875 1036.8359375 629.86328125 1036.8359375 698.23046875 c 0
 1036.8359375 794.490234375 771.7265625 722.5859375 771.7265625 928.451171875 c 0
 771.7265625 1051.7442472 867.264321853 1128.58300781 1039.765625 1128.58300781 c 4
 1067.63964844 1128.58300781 1096.73535156 1126.45605469 1125.8359375 1122.23046875 c 1
 1125.8359375 1016.23046875 l 1
 1102.26367188 1018.66503906 1077.14746094 1020.28027344 1052.36425781 1020.28027344 c 0
 966.607421875 1020.28027344 884.8359375 1000.93652344 884.8359375 929.23046875 c 0
 884.8359375 803.825195312 1146.8359375 891.7578125 1146.8359375 717.23046875 c 0
 1146.8359375 552.068359375 1003.08007812 504 846 504 c 0
 802.624023438 504 749.674804688 510.5390625 702.8359375 517.23046875 c 1
 702.8359375 631.23046875 l 1
 753.642578125 625.787109375 808.447265625 619.23046875 860.8359375 619.23046875 c 0
538 180 m 2
 1352 180 l 2
 1504 180 1579 269 1579 448 c 2
 1579 1333 l 1
 1746 1333 l 1
 1746 445 l 2
 1746 148 1613 0 1347 0 c 2
 535 0 l 2
 247 0 102 148 102 442 c 2
 102 653 l 1
 277 653 l 1
 277 443 l 2
 277 268 364 180 538 180 c 2
EndSplineSet
Substitution2: "'fina' Terminal Forms in Arabic lookup 9 subtable" uniFEDA
Substitution2: "'medi' Medial Forms in Arabic lookup 11 subtable" uniFEDC
Substitution2: "'init' Initial Forms in Arabic lookup 13 subtable" uniFEDB
EndChar

StartChar: uni0644
Encoding: 1604 1604 39
GlifName: uni0644
Width: 1334
VWidth: 2551
GlyphClass: 2
Flags: HW
AnchorPoint: "Anchor-10" 599 994.1 basechar 0
AnchorPoint: "Anchor-7" 652 -656 basechar 0
LayerCount: 2
Fore
SplineSet
274 102 m 2
 274 -143 397 -266 641 -266 c 2
 694 -266 l 2
 915 -266 1025 -149 1025 86 c 2
 1025 1333 l 1
 1191 1333 l 1
 1190 82 l 2
 1190 -271 1022 -447 687 -447 c 2
 641 -447 l 2
 280 -447 100 -265 100 101 c 2
 100 442 l 1
 274 442 l 1
 274 102 l 2
EndSplineSet
Substitution2: "'fina' Terminal Forms in Arabic lookup 9 subtable" uniFEDE
Substitution2: "'medi' Medial Forms in Arabic lookup 11 subtable" uniFEE0
Substitution2: "'init' Initial Forms in Arabic lookup 13 subtable" uniFEDF
EndChar

StartChar: uni0645
Encoding: 1605 1605 40
GlifName: uni0645
Width: 1305
VWidth: 2551
GlyphClass: 2
Flags: HW
AnchorPoint: "Anchor-10" 725 1136 basechar 0
AnchorPoint: "Anchor-7" 775 -278 basechar 0
LayerCount: 2
Fore
SplineSet
840 569 m 2
 681 569 l 1
 681 368 l 2
 681 215 743 139 866 139 c 0
 977 139 1032 215 1032 368 c 2
 1032 410 l 2
 1032 516 968 569 840 569 c 2
270 159 m 2
 270 -496 l 1
 100 -496 l 1
 101 159 l 2
 101.593889415 547.997566581 259 741 580 741 c 2
 855 741 l 2
 1088 741 1205 631 1205 411 c 2
 1205 367 l 2
 1205 108 1092 -20 866 -20 c 0
 627 -20 508 108 508 366 c 2
 508 554 l 1
 326.980591645 554 270 391.150984062 270 159 c 2
EndSplineSet
Substitution2: "'init' Initial Forms in Arabic lookup 13 subtable" uniFEE3
Substitution2: "'medi' Medial Forms in Arabic lookup 11 subtable" uniFEE4
Substitution2: "'fina' Terminal Forms in Arabic lookup 9 subtable" uniFEE2
EndChar

StartChar: uni0647
Encoding: 1607 1607 42
GlifName: uni0647
Width: 924
VWidth: 2328
GlyphClass: 2
Flags: HW
AnchorPoint: "Anchor-10" 422 1140 basechar 0
AnchorPoint: "Anchor-7" 463 -202 basechar 0
LayerCount: 2
Fore
SplineSet
270 319 m 0
 270 217 344 177 468 177 c 0
 593 177 659 219 659 323 c 0
 659 384 597 486 452 615 c 1
 319 459 270 383 270 319 c 0
467 0 m 0
 250 0 103 100 103 318 c 0
 103 427 167 530 337 734 c 1
 302 768 l 1
 411 898 l 1
 718 628 827 486 827 317 c 0
 827 100 683 0 467 0 c 0
EndSplineSet
Substitution2: "'fina' Terminal Forms in Arabic lookup 9 subtable" uniFEEA
Substitution2: "'medi' Medial Forms in Arabic lookup 11 subtable" uniFEEC
Substitution2: "'init' Initial Forms in Arabic lookup 13 subtable" uniFEEB
EndChar

StartChar: uni0648
Encoding: 1608 1608 43
GlifName: uni0648
Width: 880
VWidth: 2551
GlyphClass: 2
Flags: HW
AnchorPoint: "Anchor-7" 394 -619 basechar 0
AnchorPoint: "Anchor-10" 444 1054 basechar 0
LayerCount: 2
Fore
SplineSet
780 348 m 2
 780 0 l 2
 780 -286 581 -467 202 -467 c 2
 128 -467 l 1
 128 -291 l 1
 196 -291 l 2
 465 -291 609 -189 610 -2 c 2
 610 0 l 1
 448 0 l 2
 215.99609375 0 99.9931640625 113.02734375 99.9931640625 339.083007812 c 0
 99.9931640625 560.997070312 215.266601562 725 447 725 c 0
 658.916015625 725 780 579.655273438 780 348 c 2
267 343 m 0
 267 235 327 180 447 180 c 2
 611 180 l 1
 611 349 l 2
 611 486 545 553 443 553 c 0
 326 553 267 473 267 343 c 0
EndSplineSet
Substitution2: "'fina' Terminal Forms in Arabic lookup 9 subtable" uniFEEE
EndChar

StartChar: uni0649
Encoding: 1609 1609 44
GlifName: uni0649
Width: 1442
VWidth: 2551
GlyphClass: 2
Flags: HW
AnchorPoint: "Anchor-10" 580 1015 basechar 0
AnchorPoint: "Anchor-7" 699 -668 basechar 0
LayerCount: 2
Fore
SplineSet
726 292 m 2
 726 592.776367188 877.30078125 746 1110 746 c 2
 1341 746 l 1
 1342 571 l 1
 1105 571 l 2
 972 571 903 478 899 292 c 2
 899 229 l 1
 1059 229 l 2
 1247 229 1341 156 1341 9 c 2
 1341 -20 l 2
 1341 -306 1153 -447 775 -447 c 2
 691 -447 l 2
 299 -447 100 -264 100 105 c 2
 100 515 l 1
 272 515 l 1
 272 105 l 2
 272 -144 414 -268 691 -268 c 2
 775 -268 l 2
 1033 -268 1169 -192 1169 -38 c 2
 1169 -26 l 2
 1169 28 1133 55 1059 55 c 2
 901 55 l 2
 787 55 726 110 726 220 c 2
 726 292 l 2
EndSplineSet
Substitution2: "'fina' Terminal Forms in Arabic lookup 9 subtable" uniFEF0
Substitution2: "'medi' Medial Forms in Arabic lookup 11 subtable" uniFBE9
Substitution2: "'init' Initial Forms in Arabic lookup 13 subtable" uniFBE8
EndChar

StartChar: uni064B
Encoding: 1611 1611 46
GlifName: uni064B_
Width: -26
VWidth: 2316
GlyphClass: 4
Flags: HW
AnchorPoint: "Anchor-10" 584 1124 mark 0
AnchorPoint: "Anchor-9" 584 1124 mark 0
AnchorPoint: "Anchor-1" 553 1596 basemark 0
AnchorPoint: "Anchor-1" 584 1124 mark 0
LayerCount: 2
Fore
SplineSet
327 1076 m 5
 327 1180 l 5
 782 1366 l 5
 782 1263 l 5
 327 1076 l 5
327 1288 m 5
 327 1392 l 5
 782 1578 l 5
 782 1475 l 5
 327 1288 l 5
EndSplineSet
EndChar

StartChar: uni064C
Encoding: 1612 1612 47
GlifName: uni064C_
Width: -26
VWidth: 2316
GlyphClass: 4
Flags: HW
AnchorPoint: "Anchor-10" 681 1279 mark 0
AnchorPoint: "Anchor-9" 681 1279 mark 0
AnchorPoint: "Anchor-1" 638 1852 basemark 0
AnchorPoint: "Anchor-1" 681 1279 mark 0
LayerCount: 2
Fore
SplineSet
489 1629 m 4
 489 1726 558 1791 652 1791 c 4
 747 1791 814 1727 814 1628 c 4
 814 1589 804 1547 787 1507 c 5
 804 1504 819 1503 830 1503 c 5
 830 1427 l 5
 810 1428 786 1430 754 1436 c 5
 691 1286 598 1211 472 1211 c 4
 339 1211 271 1304 268 1490 c 5
 347 1504 l 5
 350 1360 392 1289 473 1289 c 4
 547 1289 614 1343 673 1448 c 5
 567 1485 489 1534 489 1629 c 4
709 1523 m 5
 723 1556 736 1595 736 1627 c 4
 736 1675 700 1711 656 1711 c 4
 606 1711 569 1677 569 1625 c 4
 569 1568 644 1540 709 1523 c 5
EndSplineSet
EndChar

StartChar: uni064D
Encoding: 1613 1613 48
GlifName: uni064D_
Width: -26
VWidth: 2316
GlyphClass: 4
Flags: HW
AnchorPoint: "Anchor-7" 542 33 mark 0
AnchorPoint: "Anchor-6" 542 33 mark 0
AnchorPoint: "Anchor-0" 592 -407 basemark 0
AnchorPoint: "Anchor-0" 542 33 mark 0
LayerCount: 2
Fore
SplineSet
332 -446 m 5
 332 -342 l 5
 788 -156 l 5
 788 -260 l 5
 332 -446 l 5
332 -234 m 5
 332 -130 l 5
 788 56 l 5
 788 -48 l 5
 332 -234 l 5
EndSplineSet
EndChar

StartChar: uni064E
Encoding: 1614 1614 49
GlifName: uni064E_
Width: -26
VWidth: 2316
GlyphClass: 4
Flags: HW
AnchorPoint: "Anchor-10" 546 1398 mark 0
AnchorPoint: "Anchor-9" 546 1398 mark 0
AnchorPoint: "Anchor-1" 541 1652 basemark 0
AnchorPoint: "Anchor-1" 546 1398 mark 0
LayerCount: 2
Fore
SplineSet
296 1349 m 5
 296 1453 l 5
 752 1639 l 5
 752 1535 l 5
 296 1349 l 5
EndSplineSet
EndChar

StartChar: uni064F
Encoding: 1615 1615 50
GlifName: uni064F_
Width: -26
VWidth: 2316
GlyphClass: 4
Flags: HW
AnchorPoint: "Anchor-10" 591 1359 mark 0
AnchorPoint: "Anchor-9" 591 1359 mark 0
AnchorPoint: "Anchor-1" 542 1865 basemark 0
AnchorPoint: "Anchor-1" 591 1359 mark 0
LayerCount: 2
Fore
SplineSet
723 1427 m 5
 695 1427 669 1429 643 1433 c 5
 578 1342 464 1292 300 1283 c 5
 300 1361 l 5
 431 1373 519 1405 566 1455 c 5
 474 1472 380 1532 380 1626 c 4
 380 1724 449 1788 543 1788 c 4
 637 1788 706 1723 706 1625 c 4
 706 1586 697 1547 680 1506 c 5
 693 1504 708 1502 723 1502 c 5
 723 1427 l 5
600 1520 m 5
 614 1553 627 1592 627 1624 c 4
 627 1673 591 1707 547 1707 c 4
 496 1707 460 1674 460 1622 c 4
 460 1565 535 1537 600 1520 c 5
EndSplineSet
EndChar

StartChar: uni0650
Encoding: 1616 1616 51
GlifName: uni0650
Width: -26
VWidth: 2316
GlyphClass: 4
Flags: HW
AnchorPoint: "Anchor-7" 571 -45 mark 0
AnchorPoint: "Anchor-6" 571 -45 mark 0
AnchorPoint: "Anchor-0" 619 -325 basemark 0
AnchorPoint: "Anchor-0" 571 -45 mark 0
LayerCount: 2
Fore
SplineSet
343 -346 m 5
 343 -242 l 5
 798 -56 l 5
 798 -159 l 5
 343 -346 l 5
EndSplineSet
EndChar

StartChar: uni0651
Encoding: 1617 1617 52
GlifName: uni0651
Width: -26
VWidth: 2393
GlyphClass: 4
Flags: HW
AnchorPoint: "Anchor-10" 599 1454 mark 0
AnchorPoint: "Anchor-9" 599 1454 mark 0
AnchorPoint: "Anchor-1" 570 1839 basemark 0
AnchorPoint: "Anchor-1" 599 1454 mark 0
LayerCount: 2
Fore
SplineSet
608 1758 m 5
 609 1730 609 1703 611 1676 c 4
 616 1615 637 1574 681 1574 c 4
 728 1574 748 1608 748 1675 c 4
 748 1700 742 1740 731 1793 c 5
 819 1807 l 5
 831 1766 837 1725 837 1685 c 4
 837 1550 788 1483 690 1482 c 4
 647 1482 599 1503 581 1539 c 5
 561 1461 493 1438 432 1438 c 4
 338 1438 294 1499 294 1616 c 4
 294 1652 299 1686 307 1716 c 5
 385 1703 l 5
 378 1672 376 1644 376 1620 c 4
 376 1564 399 1536 444 1536 c 4
 529 1536 531 1597 531 1719 c 4
 531 1731 531 1745 531 1758 c 5
 608 1758 l 5
EndSplineSet
EndChar

StartChar: uni0652
Encoding: 1618 1618 53
GlifName: uni0652
Width: -26
VWidth: 2316
GlyphClass: 4
Flags: HW
AnchorPoint: "Anchor-10" 595 1271 mark 0
AnchorPoint: "Anchor-9" 595 1271 mark 0
AnchorPoint: "Anchor-1" 590 1683 basemark 0
AnchorPoint: "Anchor-1" 595 1271 mark 0
LayerCount: 2
Fore
SplineSet
421 1462 m 128
 421 1558 498 1635 594 1635 c 128
 690 1635 768 1558 768 1462 c 128
 768 1414 751 1373 717 1339 c 128
 683 1305 642 1288 594 1288 c 128
 498 1288 421 1366 421 1462 c 128
503 1461 m 0
 502 1409 545 1367 597 1367 c 0
 649 1367 691 1409 691 1461 c 0
 691 1513 649 1555 597 1555 c 0
 545 1555 502 1513 503 1461 c 0
EndSplineSet
EndChar

StartChar: uni0653
Encoding: 1619 1619 54
GlifName: uni0653
Width: 11
VWidth: 2551
GlyphClass: 4
Flags: HW
AnchorPoint: "Anchor-10" 402 1465 mark 0
AnchorPoint: "Anchor-9" 402 1465 mark 0
AnchorPoint: "Anchor-1" 387 1771 basemark 0
AnchorPoint: "Anchor-1" 402 1465 mark 0
LayerCount: 2
Fore
SplineSet
323 1689 m 2
 711 1689 l 5
 713 1541 l 5
 333 1541 l 2
 250.619140625 1541 204 1486 173 1414 c 1
 62 1489 l 1
 100 1598 188.157226562 1689 323 1689 c 2
EndSplineSet
EndChar

StartChar: uni0657
Encoding: 1623 1623 57
GlifName: uni0657
Width: -26
VWidth: 2316
GlyphClass: 4
Flags: HW
AnchorPoint: "Anchor-10" 513 1401 mark 0
AnchorPoint: "Anchor-9" 513 1401 mark 0
AnchorPoint: "Anchor-1" 537 2070 basemark 0
AnchorPoint: "Anchor-1" 513 1401 mark 0
LayerCount: 2
Fore
SplineSet
265 1805 m 1
 305 1804 348 1801 395 1796 c 1
 396 1797 l 2
 496 1939 625 2018 785 2033 c 1
 785 1955 l 1
 662 1935 562 1876 486 1778 c 1
 573 1753 658 1697 658 1599 c 0
 658 1508 593 1438 501 1438 c 0
 409 1438 332 1503 332 1603 c 0
 332 1632 339 1672 355 1722 c 1
 328 1724 299 1726 265 1726 c 1
 265 1805 l 1
501 1516 m 0
 549 1516 577 1549 577 1597 c 0
 577 1658 503 1693 437 1709 c 1
 419 1666 410 1632 410 1605 c 0
 410 1553 451 1516 501 1516 c 0
EndSplineSet
EndChar

StartChar: uni065A
Encoding: 1626 1626 58
GlifName: uni065A_
Width: 1135
VWidth: 2316
GlyphClass: 4
Flags: HW
AnchorPoint: "Anchor-10" 573 1351 mark 0
AnchorPoint: "Anchor-9" 573 1351 mark 0
AnchorPoint: "Anchor-1" 571 1862 basemark 0
AnchorPoint: "Anchor-1" 573 1351 mark 0
LayerCount: 2
Fore
SplineSet
502 1444 m 5
 309 1768 l 5
 433 1768 l 5
 573 1528 l 5
 714 1768 l 5
 838 1768 l 5
 644 1444 l 5
 502 1444 l 5
EndSplineSet
EndChar

StartChar: uni0660
Encoding: 1632 1632 59
GlifName: afii57392
Width: 890
VWidth: 2551
GlyphClass: 2
Flags: HW
LayerCount: 2
Fore
SplineSet
293 493 m 4
 293 409 361 340 445 340 c 4
 529 340 597 409 597 493 c 4
 597 577 529 646 445 646 c 4
 361 646 293 577 293 493 c 4
140 493 m 4
 140 661 277 798 445 798 c 4
 613 798 750 661 750 493 c 4
 750 325 613 188 445 188 c 4
 277 188 140 325 140 493 c 4
EndSplineSet
EndChar

StartChar: uni0661
Encoding: 1633 1633 60
GlifName: afii57393
Width: 682
VWidth: 2551
GlyphClass: 2
Flags: HW
LayerCount: 2
Fore
SplineSet
468 4 m 1
 297 4 l 1
 297 300 l 2
 297 666 256 985 175 1256 c 1
 338 1306 l 1
 425 1016 468 681 468 299 c 2
 468 4 l 1
EndSplineSet
EndChar

StartChar: uni0662
Encoding: 1634 1634 61
GlifName: afii57394
Width: 1096
VWidth: 2551
GlyphClass: 2
Flags: HW
LayerCount: 2
Fore
SplineSet
628.849609375 895.982421875 m 0
 813.748046875 895.982421875 816 1016.15234375 816 1213 c 2
 816 1308 l 1
 981 1308 l 1
 981 1217 l 2
 981 899.283203125 921.475585938 717 626 717 c 0
 585.508789062 717 497.09765625 729.951171875 443 762 c 5
 458.166015625 661.336914062 468 490.510742188 468 300 c 2
 468 4 l 1
 297 4 l 1
 297 300 l 2
 297 665 256 984 176 1256 c 1
 340 1306 l 1
 418 957 l 17
 485 916 558.379882812 895.982421875 628.849609375 895.982421875 c 0
EndSplineSet
EndChar

StartChar: uni0663
Encoding: 1635 1635 62
GlifName: afii57395
Width: 1395
VWidth: 2551
GlyphClass: 2
Flags: HW
LayerCount: 2
Fore
SplineSet
576.796875 895.989257812 m 0
 658.791015625 895.989257812 708 980.203125 708 1102 c 2
 709 1267 l 1
 872 1267 l 1
 871 1102 l 2
 871 986 900 896 998 896 c 4
 1067 896 1125 935 1125 1107 c 2
 1125 1306 l 1
 1287 1306 l 1
 1287 1107 l 2
 1287 850 1182 717 1008 717 c 0
 910.030273438 717 851.129882812 751.8046875 799 830 c 1
 747.91796875 753.377929688 689.5390625 717 598 717 c 0
 540.615234375 717 490.215820312 740.0703125 442 769 c 1
 460.715820312 635.420898438 468 485.236328125 468 300 c 2
 468 4 l 1
 297 4 l 1
 297 300 l 2
 297 665 256 984 176 1256 c 1
 340 1306 l 1
 418 957 l 17
 469 917 512.043945312 895.989257812 576.796875 895.989257812 c 0
EndSplineSet
EndChar

StartChar: uni0664
Encoding: 1636 1636 63
GlifName: afii57396
Width: 966
VWidth: 2551
GlyphClass: 2
Flags: HW
LayerCount: 2
Fore
SplineSet
142 323 m 0
 143 457 259 568 488 677 c 5
 284 779 182 892 182 1015 c 4
 182 1200 323 1294 604 1295 c 6
 741 1295 l 5
 743 1121 l 5
 607 1120 l 6
 460 1119 386 1082 386 1009 c 4
 386 931 501 849 731 762 c 5
 721 596 l 5
 470 513 344 432 345 331 c 0
 346 230 437 180 620 180 c 2
 856 180 l 1
 855 5 l 1
 620 5 l 2
 300 5 140 111 142 323 c 0
EndSplineSet
EndChar

StartChar: uni0665
Encoding: 1637 1637 64
GlifName: afii57397
Width: 1172
VWidth: 2551
GlyphClass: 2
Flags: HW
LayerCount: 2
Fore
SplineSet
573 983 m 6
 370 755 269 557 269 370 c 0
 269 246 379 184 599 184 c 0
 798 184 897 244 897 360 c 0
 897 565 790 765 576 983 c 6
 575 985 l 5
 573 983 l 6
379 1136 m 5
 475 1284 l 5
 871 1003 1070 707 1070 378 c 0
 1070 124 914 -2 602 -1 c 0
 269 0 102 123 102 369 c 0
 102 596 213 831 436 1093 c 6
 437 1095 l 5
 436 1096 l 5
 379 1136 l 5
EndSplineSet
EndChar

StartChar: uni0666
Encoding: 1638 1638 65
GlifName: afii57398
Width: 1176
VWidth: 2551
GlyphClass: 2
Flags: HW
LayerCount: 2
Fore
SplineSet
114 1306 m 1
 643 1307 l 2
 857 1307 964 1191 964 959 c 2
 964 4 l 1
 796 4 l 1
 796 955 l 2
 796 1060 744 1112 639 1112 c 2
 114 1112 l 1
 114 1306 l 1
EndSplineSet
EndChar

StartChar: uni0667
Encoding: 1639 1639 66
GlifName: afii57399
Width: 1201
VWidth: 2551
GlyphClass: 2
Flags: HW
LayerCount: 2
Fore
SplineSet
600 384 m 1
 664.363221343 673.634496044 781.796390308 974.408789325 940 1315 c 1
 1098 1233 l 1
 889 839 747 436 673 4 c 1
 528 4 l 1
 454 436 312 839 103 1233 c 1
 261 1315 l 1
 419.345783551 974.102708023 535.632891474 673.651988368 600 384 c 1
EndSplineSet
EndChar

StartChar: uni0668
Encoding: 1640 1640 67
GlifName: afii57400
Width: 1201
VWidth: 2551
GlyphClass: 2
Flags: HW
LayerCount: 2
Fore
SplineSet
601 916 m 1
 536.636778657 626.365503956 419.203609692 325.591210675 261 -15 c 1
 103 67 l 1
 312 461 454 864 528 1296 c 1
 673 1296 l 1
 747 864 889 461 1098 67 c 1
 940 -15 l 1
 781.654216449 325.897291977 665.367108526 626.348011632 601 916 c 1
EndSplineSet
EndChar

StartChar: uni0669
Encoding: 1641 1641 68
GlifName: afii57401
Width: 1080
GlyphClass: 2
Flags: HW
LayerCount: 2
Fore
SplineSet
130 927 m 4
 130 1118.6875 283.520507812 1313 485 1313 c 0
 751.505859375 1313 822.41796875 1108.53808594 837 827 c 0
 852.333007812 518.333007812 863.333007812 256 870 0 c 1
 702 0 l 1
 698.438476562 136.536132812 687.559570312 512.549804688 684 649 c 1
 650.666992188 639 578 624 496 624 c 0
 256.250976562 624 130 712.737304688 130 927 c 4
484 1142 m 0
 377.569335938 1142 296 1033.03515625 296 927 c 0
 296 831.666992188 353.666992188 794 499 794 c 0
 549.666992188 794 636.666992188 809 670 819 c 1
 663.159179688 930.72265625 654.75390625 1019.59472656 613.510742188 1080 c 0
 586.862304688 1119.03027344 546.50390625 1142 484 1142 c 0
EndSplineSet
EndChar

StartChar: uni066A
Encoding: 1642 1642 69
GlifName: afii57381
Width: 1033
VWidth: 4036
GlyphClass: 2
Flags: HW
LayerCount: 2
Fore
SplineSet
741.888671875 1331.76074219 m 5
 874 1272 l 5
 292.056640625 -14.501953125 l 5
 159.944335938 45.2587890625 l 5
 741.888671875 1331.76074219 l 5
637 173 m 4
 637 246 697 307 770 307 c 4
 843 307 903 246 903 173 c 4
 903 100 843 40 770 40 c 4
 696 40 637 97 637 173 c 4
130 1139 m 4
 130 1212 190 1273 263 1273 c 4
 336 1273 396 1212 396 1139 c 4
 396 1066 336 1006 263 1006 c 4
 189 1006 130 1063 130 1139 c 4
EndSplineSet
EndChar

StartChar: uni066B
Encoding: 1643 1643 70
GlifName: uni066B_
Width: 772
VWidth: 2950
GlyphClass: 2
Flags: HW
LayerCount: 2
Fore
SplineSet
534 713 m 5
 661 659 l 5
 199 -408 l 5
 69 -352 l 5
 534 713 l 5
EndSplineSet
PairPos2: "'kern' Horizontal Kerning lookup 15-4" uni06F2 dx=-130 dy=0 dh=-130 dv=0 dx=0 dy=0 dh=0 dv=0
PairPos2: "'kern' Horizontal Kerning lookup 15-4" uni06F3 dx=-130 dy=0 dh=-130 dv=0 dx=0 dy=0 dh=0 dv=0
PairPos2: "'kern' Horizontal Kerning lookup 15-4" uni06F4 dx=-110 dy=0 dh=-110 dv=0 dx=0 dy=0 dh=0 dv=0
EndChar

StartChar: uni066C
Encoding: 1644 1644 71
GlifName: uni066C_
Width: 560
GlyphClass: 2
Flags: HW
LayerCount: 2
Fore
SplineSet
178 -300 m 1
 83 -228 l 1
 146 -141 184 -41 187 52 c 1
 187 219 l 1
 358 219 l 1
 358 74 l 2
 358 -78 266 -228 178 -300 c 1
EndSplineSet
EndChar

StartChar: uni066D
Encoding: 1645 1645 72
GlifName: afii63167
Width: 1436
VWidth: 2948
GlyphClass: 2
Flags: HW
LayerCount: 2
Fore
SplineSet
151 1039 m 5
 583 1039 l 5
 718 1450 l 5
 853 1039 l 5
 1285 1039 l 5
 936 783 l 5
 1070 373 l 5
 718 627 l 5
 366 373 l 5
 500 783 l 5
 151 1039 l 5
EndSplineSet
EndChar

StartChar: uni066E
Encoding: 1646 1646 73
GlifName: uni066E_
Width: 1885
VWidth: 2551
GlyphClass: 2
Flags: HW
AnchorPoint: "Anchor-10" 878 1228 basechar 0
AnchorPoint: "Anchor-7" 918 -217 basechar 0
LayerCount: 2
Fore
SplineSet
535 180 m 6
 1360 180 l 6
 1526 180 1611 267 1611 443 c 6
 1611 640 l 5
 1785 640 l 5
 1785 446 l 6
 1785 149 1644 0 1357 0 c 6
 538 0 l 6
 250 0 100 147 100 442 c 6
 100 643 l 5
 274 643 l 5
 274 443 l 6
 274 268 362 180 535 180 c 6
EndSplineSet
Substitution2: "'fina' Terminal Forms in Arabic lookup 9 subtable" uni066E.fina
EndChar

StartChar: uni066F
Encoding: 1647 1647 74
GlifName: uni066F_
Width: 1431
VWidth: 2551
GlyphClass: 2
Flags: HW
AnchorPoint: "Anchor-10" 354 1160 basechar 0
AnchorPoint: "Anchor-7" 425 -715 basechar 0
LayerCount: 2
Fore
SplineSet
1331 348 m 2
 1331 -66 l 2
 1331 -356 1060 -449 744 -449 c 6
 693 -449 l 2
 299 -449 100 -267 100 101 c 2
 100 442 l 1
 274 442 l 1
 274 102 l 2
 274 -146 415 -270 693 -270 c 2
 744 -270 l 2
 996.940707008 -270 1160.98339844 -206.352539062 1161.00097656 -66 c 2
 1161 0 l 1
 999 0 l 2
 766.99609375 0 650.993164062 113.02734375 650.993164062 339.083007812 c 0
 650.993164062 560.997070312 766.266601562 725 998 725 c 0
 1209.91601562 725 1331 580 1331 348 c 2
818 343 m 0
 818 235 878 180 998 180 c 2
 1162 180 l 1
 1162 349 l 2
 1162 486 1096 553 994 553 c 0
 877 553 818 473 818 343 c 0
EndSplineSet
Substitution2: "'fina' Terminal Forms in Arabic lookup 9 subtable" uni066F.fina
EndChar

StartChar: uni0670
Encoding: 1648 1648 75
GlifName: uni0670
Width: -29
VWidth: 2574
GlyphClass: 4
Flags: HW
AnchorPoint: "Anchor-10" 646.984 1500.61 mark 0
AnchorPoint: "Anchor-9" 646.984 1500.61 mark 0
AnchorPoint: "Anchor-1" 646.984 1957.18 basemark 0
AnchorPoint: "Anchor-1" 646.984 1500.61 mark 0
LayerCount: 2
Fore
SplineSet
603 1568 m 5
 603 1930 l 5
 691 1930 l 5
 691 1568 l 5
 603 1568 l 5
EndSplineSet
EndChar

StartChar: uni0674
Encoding: 1652 1652 76
GlifName: uni0674
Width: 551
VWidth: 2539
GlyphClass: 2
Flags: HW
LayerCount: 2
Fore
SplineSet
186.089656801 1969.38869169 m 1
 136.28964359 2009.74134045 116 2058.125 116 2133 c 0
 116 2260.95703125 211.33203125 2341 337 2341 c 0
 385.200195312 2341 431.235351562 2326.26367188 473.021484375 2300.22851562 c 1
 473.930664062 2181.05078125 l 1
 432.57421875 2205.87695312 392.530273438 2218 351 2218 c 0
 280.383789062 2218 231 2190.47070312 231 2119.9375 c 0
 232.08203125 2076.67382812 256.663905645 2044.53378033 319.339127703 2021.28305483 c 0
 326.164850476 2019.00746468 332.381749635 2017.1953125 338.90234375 2017.1953125 c 0
 341.898315692 2017.1953125 342.81231583 2017.36171024 347.366653688 2018.36215634 c 0
 391.01717254 2026.73410219 436.828785599 2036.40647122 480 2044.92278447 c 5
 480 1928.93916352 l 5
 83 1833.34702593 l 1
 83 1946.00679526 l 1
 186.089656801 1969.38869169 l 1
EndSplineSet
EndChar

StartChar: uni06A1
Encoding: 1697 1697 80
GlifName: uni06A_1
Width: 1842
VWidth: 2551
GlyphClass: 2
Flags: HW
AnchorPoint: "Anchor-10" 502 1205 basechar 0
AnchorPoint: "Anchor-7" 519 -187 basechar 0
LayerCount: 2
Fore
SplineSet
1070 626 m 0
 1070 831.341796875 1190.78515625 980 1410 980 c 0
 1631 980 1742 852 1742 654 c 2
 1742 335 l 2
 1742 111 1616 0 1306 0 c 2
 536 0 l 2
 248 0 100 147 100 442 c 2
 100 643 l 1
 274 643 l 1
 274 443 l 2
 274 268 360 180 533 180 c 2
 1309 180 l 2
 1529 180 1579 229 1579 328 c 2
 1579 353 l 1
 1525 348 1474.60742188 344 1426 344 c 0
 1189 344 1070 428 1070 626 c 0
1412 809 m 0
 1297.29101562 809 1235 746.392578125 1235 637 c 0
 1235 537 1301 518 1434 518 c 0
 1483 518 1530 522 1577 528 c 1
 1579 528 l 1
 1579 571 1579 614 1579 657 c 0
 1579 749 1523 809 1412 809 c 0
EndSplineSet
Substitution2: "'init' Initial Forms in Arabic lookup 13 subtable" uni06A1.init
Substitution2: "'medi' Medial Forms in Arabic lookup 11 subtable" uni06A1.medi
Substitution2: "'fina' Terminal Forms in Arabic lookup 9 subtable" uni06A1.fina
EndChar

StartChar: uni06A9
Encoding: 1705 1705 81
GlifName: uni06A_9
Width: 1855
VWidth: 2551
GlyphClass: 2
Flags: HW
AnchorPoint: "Anchor-10" 1065 1329 basechar 0
AnchorPoint: "Anchor-7" 848 -233 basechar 0
LayerCount: 2
Fore
SplineSet
1257 0 m 2
 532 0 l 2
 244 0 100 147 100 442 c 2
 100 643 l 1
 275 643 l 1
 275 443 l 2
 275 268 362 180 535 180 c 2
 1259 180 l 2
 1425 180 1509 225 1509 314 c 0
 1509 351 1472 412 1397 497 c 2
 1083 862 l 2
 1050.60351562 899.658203125 1027 943 1027 998 c 0
 1028 1078 1069 1131 1146 1156 c 2
 1770 1360 l 1
 1770 1181 l 1
 1200 995 l 1
 1508 638 l 2
 1622.09765625 505.750976562 1675.02148438 410.977539062 1675.02148438 313.68359375 c 0
 1675.02148438 111.5546875 1535 0 1257 0 c 2
EndSplineSet
Substitution2: "'init' Initial Forms in Arabic lookup 13 subtable" uniFB90
Substitution2: "'medi' Medial Forms in Arabic lookup 11 subtable" uniFB91
Substitution2: "'fina' Terminal Forms in Arabic lookup 9 subtable" uniFB8F
EndChar

StartChar: uni06BA
Encoding: 1722 1722 83
GlifName: afii57514
Width: 1437
VWidth: 2551
GlyphClass: 2
Flags: HW
AnchorPoint: "Anchor-10" 597 923 basechar 0
AnchorPoint: "Anchor-7" 701 -708 basechar 0
LayerCount: 2
Fore
SplineSet
1337 631 m 1
 1337 52 l 2
 1329 -283 1127 -449 744 -449 c 2
 693 -449 l 2
 299 -449 100 -267 100 101 c 2
 100 442 l 1
 274 442 l 1
 274 102 l 2
 274 -146 415 -270 693 -270 c 2
 744 -270 l 2
 1022 -270 1161 -164 1161 47 c 2
 1161 631 l 1
 1337 631 l 1
EndSplineSet
Substitution2: "'fina' Terminal Forms in Arabic lookup 9 subtable" uniFB9F
EndChar

StartChar: uni06F4
Encoding: 1780 1780 90
GlifName: uni06F_4
Width: 1186
VWidth: 2551
GlyphClass: 2
Flags: HW
LayerCount: 2
Fore
SplineSet
680 838.064453125 m 0
 722.227158562 827.90485613 792.271484375 818 857 818 c 0
 917 818 996 831 1080 866 c 1
 1083 694 l 1
 996 657 905 645 837 645 c 0
 691.479492188 645 561.379882812 690.20703125 445 749 c 1
 460 613.115234375 468 445.76171875 468 300 c 2
 468 4 l 1
 297 4 l 1
 297 300 l 2
 297 664 256 983 176 1256 c 1
 339 1306 l 1
 424 929 l 17
 440 916 480 898 501 892 c 1
 501 1158.66894531 617.171875 1307 829 1307 c 0
 894 1307 963 1296 1043 1246 c 1
 1028 1099 l 1
 962.775390625 1134.08203125 900.551757812 1145.00195312 850.442382812 1145.00195312 c 0
 725.355034385 1145.00195312 645.55859375 1063.99414062 645.55859375 879.219726562 c 0
 645.55859375 848.666992188 654.875 844.109375 680 838.064453125 c 0
EndSplineSet
PairPos2: "'kern' Horizontal Kerning lookup 15-4" uni06F0 dx=-64 dy=0 dh=-64 dv=0 dx=0 dy=0 dh=0 dv=0
PairPos2: "'kern' Horizontal Kerning lookup 15-4" uni06F5 dx=-40 dy=0 dh=-40 dv=0 dx=0 dy=0 dh=0 dv=0
PairPos2: "'kern' Horizontal Kerning lookup 15-4" uni06F8 dx=-64 dy=0 dh=-64 dv=0 dx=0 dy=0 dh=0 dv=0
PairPos2: "'kern' Horizontal Kerning lookup 15-4" uni06F1 dx=-64 dy=0 dh=-64 dv=0 dx=0 dy=0 dh=0 dv=0
PairPos2: "'kern' Horizontal Kerning lookup 15-4" uni06F9 dx=-64 dy=0 dh=-64 dv=0 dx=0 dy=0 dh=0 dv=0
EndChar

StartChar: uni06F5
Encoding: 1781 1781 91
GlifName: uni06F_5
Width: 1218
VWidth: 2551
GlyphClass: 2
Flags: HW
LayerCount: 2
Fore
SplineSet
612 991 m 1
 371 703 264 493 264 324 c 0
 264 234 293 180 375 180 c 0
 486 180 532 265 540 425 c 1
 679 425 l 1
 686 269 732 180 842 180 c 0
 924.018554688 180 956.009384427 226.872764827 956.009384427 321.579085975 c 0
 956.009384427 509.101202605 832.003675706 717.753425607 612 991 c 1
610 164 m 1
 562 59 499.00390625 0 378 0 c 0
 188 0 100 118 100 320 c 0
 100 563 279 842 496 1111 c 1
 445 1165 l 1
 565 1302 l 1
 907 949 1118 587 1118 320 c 0
 1118 116 1031 0 839 0 c 0
 717 0 658 59 610 164 c 1
EndSplineSet
PairPos2: "'kern' Horizontal Kerning lookup 15-4" uni06F2 dx=-100 dy=0 dh=-100 dv=0 dx=0 dy=0 dh=0 dv=0
PairPos2: "'kern' Horizontal Kerning lookup 15-4" uni06F3 dx=-100 dy=0 dh=-100 dv=0 dx=0 dy=0 dh=0 dv=0
PairPos2: "'kern' Horizontal Kerning lookup 15-4" uni06F4 dx=-42 dy=0 dh=-42 dv=0 dx=0 dy=0 dh=0 dv=0
PairPos2: "'kern' Horizontal Kerning lookup 15-4" uni06F6 dx=-42 dy=0 dh=-42 dv=0 dx=0 dy=0 dh=0 dv=0
PairPos2: "'kern' Horizontal Kerning lookup 15-4" uni06F7 dx=-100 dy=0 dh=-100 dv=0 dx=0 dy=0 dh=0 dv=0
PairPos2: "'kern' Horizontal Kerning lookup 15-4" uni06F8 dx=-38 dy=0 dh=-38 dv=0 dx=0 dy=0 dh=0 dv=0
EndChar

StartChar: uni06F6
Encoding: 1782 1782 92
GlifName: uni06F_6
Width: 1000
VWidth: 2551
GlyphClass: 2
Flags: HW
LayerCount: 2
Fore
SplineSet
540 1143 m 0
 405.178710938 1143 303.97265625 1067.04199219 303.97265625 936.733398438 c 0
 303.97265625 804.89453125 414.89453125 744.5703125 576.974609375 744.5703125 c 0
 607.393554688 744.5703125 636.928710938 746.776367188 666 767 c 0
 719 804 758 850 822 906 c 1
 904 764 l 1
 745 636 597 410 357 -39 c 1
 203 34 l 1
 354 318 392 369 527 583 c 5
 272.59375 603 135 729.963867188 135 927 c 0
 135 1150.30566406 285.702148438 1309 506 1309 c 0
 587 1309 657 1293 715 1261 c 1
 714 1101 l 1
 659 1129 601 1143 540 1143 c 0
EndSplineSet
PairPos2: "'kern' Horizontal Kerning lookup 15-4" uni06F7 dx=-40 dy=0 dh=-40 dv=0 dx=0 dy=0 dh=0 dv=0
PairPos2: "'kern' Horizontal Kerning lookup 15-4" uni06F8 dx=-40 dy=0 dh=-40 dv=0 dx=0 dy=0 dh=0 dv=0
PairPos2: "'kern' Horizontal Kerning lookup 15-4" uni06F9 dx=-30 dy=0 dh=-30 dv=0 dx=0 dy=0 dh=0 dv=0
EndChar

StartChar: uniFB8F
Encoding: 64399 64399 107
GlifName: uniF_B_8F_
Width: 2020
VWidth: 2551
GlyphClass: 2
Flags: HW
AnchorPoint: "Anchor-7" 848 -233 basechar 0
AnchorPoint: "Anchor-10" 1065 1329 basechar 0
LayerCount: 2
Fore
SplineSet
1257 0 m 2
 532 0 l 2
 244 0 100 147 100 442 c 2
 100 643 l 1
 275 643 l 1
 275 443 l 2
 275 269.041015625 361 180 535 180 c 2
 1259 180 l 2
 1425 180 1509 225 1509 314 c 0
 1509 351 1472 412 1397 497 c 2
 1083 862 l 2
 1049.2578125 901.221679688 1027 943 1027 998 c 0
 1028 1078 1069 1131 1146 1156 c 2
 1770 1360 l 1
 1770 1181 l 1
 1200 995 l 1
 1771 335 l 2
 1859.56835938 232.626953125 1937 181 2003 180 c 1
 2027 180 l 2
 2042 180 2050 152 2050 97 c 2
 2050 86 l 2
 2050 29 2042 0 2027 0 c 2
 2012 0 l 2
 1876 0 1760 67 1662 201 c 1
 1660 204 l 1
 1614.63476562 67.904296875 1483 0 1257 0 c 2
EndSplineSet
EndChar

StartChar: uniFB9F
Encoding: 64415 64415 115
GlifName: uniF_B_9F_
Width: 1590
VWidth: 2551
GlyphClass: 2
Flags: HW
AnchorPoint: "Anchor-7" 691 -668 basechar 0
AnchorPoint: "Anchor-10" 644 806 basechar 0
LayerCount: 2
Fore
SplineSet
1557 0 m 2
 1447.48072007 0 1359.59179688 26.6806640625 1324 76 c 5
 1324 52 l 6
 1324 -283 1134 -449 744 -449 c 2
 693 -449 l 2
 299 -449 100 -267 100 101 c 2
 100 442 l 1
 274 442 l 1
 274 102 l 2
 274 -146 415 -270 693 -270 c 2
 744 -270 l 2
 1022 -270 1161 -164 1161 47 c 2
 1161 631 l 1
 1337 631 l 1
 1337 397 l 2
 1337 243.071289062 1412.49843368 180 1566 180 c 2
 1595 180 l 2
 1610 180 1618 152 1618 97 c 2
 1618 86 l 2
 1618 52.1239746977 1617.01884107 0 1595 0 c 2
 1557 0 l 2
EndSplineSet
EndChar

StartChar: uniFBE8
Encoding: 64488 64488 118
GlifName: uniF_B_E_8
Width: 757
VWidth: 2551
GlyphClass: 2
Flags: HW
AnchorPoint: "Anchor-10" 450 1218 basechar 0
AnchorPoint: "Anchor-7" 467 -144 basechar 0
LayerCount: 2
Fore
SplineSet
-5 180 m 2
 278 180 l 2
 413 180 480 225 480 373 c 2
 480 667 l 1
 654 667 l 1
 654 372 l 2
 654 124 529 -0 279 -0 c 2
 -5 0 l 2
 -20 0 -30 29 -30 86 c 2
 -30 97 l 2
 -30 152 -20 180 -5 180 c 2
EndSplineSet
EndChar

StartChar: uniFBE9
Encoding: 64489 64489 119
GlifName: uniF_B_E_9
Width: 877
VWidth: 2551
GlyphClass: 2
Flags: HW
AnchorPoint: "Anchor-10" 370 1124 basechar 0
AnchorPoint: "Anchor-7" 409 -149 basechar 0
LayerCount: 2
Fore
SplineSet
-5 180 m 6
 241 180 l 6
 411 180 482 245 482 375 c 6
 482 633 l 5
 653 633 l 5
 653 375 l 6
 653 245 708 180 860 180 c 6
 882 180 l 6
 897 180 905 152 905 97 c 6
 905 86 l 6
 905 29 897 0 882 0 c 6
 861 0 l 6
 713 0 631 45 573 136 c 5
 505 45 405 0 236 0 c 6
 -5 0 l 6
 -20 0 -30 29 -30 86 c 6
 -30 97 l 6
 -30 152 -20 180 -5 180 c 6
EndSplineSet
EndChar

StartChar: uniFE73
Encoding: 65139 65139 127
GlifName: uniF_E_73
Width: 660
VWidth: 2950
GlyphClass: 2
Flags: HW
AnchorPoint: "Anchor-10" 331 1010 basechar 0
AnchorPoint: "Anchor-7" 405 -208 basechar 0
LayerCount: 2
Fore
SplineSet
286 424 m 2
 286 262 394 182 606 182 c 2
 673 182 l 1
 675 182 l 1
 675 180 l 1
 675 2 l 1
 675 0 l 1
 673 0 l 1
 596 0 l 2
 264 0 100 144 100 427 c 2
 100 447 l 1
 100 449 l 1
 102 449 l 1
 284 449 l 1
 286 449 l 1
 286 447 l 1
 286 424 l 2
EndSplineSet
EndChar

StartChar: uniFE8E
Encoding: 65166 65166 153
GlifName: uniF_E_8E_
Width: 516
VWidth: 2551
GlyphClass: 2
Flags: HW
AnchorPoint: "Anchor-10" 224 1463 basechar 0
AnchorPoint: "Anchor-7" 262 -247 basechar 0
LayerCount: 2
Fore
SplineSet
545 86 m 2
 545 52.1240234375 544.018554688 0 522 0 c 2
 476 0 l 2
 258 0 150 125 150 375 c 2
 150 1333 l 1
 316 1333 l 5
 316 374 l 6
 316 245 372 180 479 180 c 2
 522 180 l 2
 537 180 545 152 545 97 c 2
 545 86 l 2
EndSplineSet
EndChar

StartChar: uniFEA2
Encoding: 65186 65186 173
GlifName: uniF_E_A_2
Width: 1359
VWidth: 2551
GlyphClass: 2
Flags: HW
AnchorPoint: "Anchor-7" 743.334 -875.653 basechar 0
AnchorPoint: "Anchor-10" 657.5 1032.5 basechar 0
LayerCount: 2
Fore
SplineSet
927 462 m 1
 795 535 l 10
 709 582 631 607 554 607 c 0
 466 607 403 576 324 514 c 2
 253 457 l 1
 138 586 l 1
 199 638 l 2
 319 739 422 790 548 790 c 0
 642 790 737 762 834 706 c 2
 1023 597 l 2
 1091 558 1161 534 1213 523 c 1
 1213 341 l 1
 1168.75768486 335.101024648 1122.03033812 328.389391498 1074 320.543945312 c 1
 1074 222.639648438 1155.29975694 180 1313 180 c 2
 1364 180 l 2
 1379 180 1387 152 1387 97 c 2
 1387 86 l 2
 1387 29 1379 0 1364 0 c 2
 1312 0 l 2
 1103.87971232 0 936 96.4033203125 926 293.036132812 c 1
 601.401914685 224.401341799 272 92.9847755129 272 -192 c 0
 272 -417 448 -519 802 -519 c 2
 1214 -519 l 1
 1214 -695 l 1
 790 -695 l 2
 376.898929133 -695 100 -540.443657465 100 -195 c 0
 100 153.554530588 380.858398438 372.643554688 927 462 c 1
EndSplineSet
EndChar

StartChar: uniFEA3
Encoding: 65187 65187 174
GlifName: uniF_E_A_3
Width: 1302
VWidth: 2551
GlyphClass: 2
Flags: HW
AnchorPoint: "Anchor-10" 559 1103 basechar 0
AnchorPoint: "Anchor-7" 425 -242 basechar 0
LayerCount: 2
Fore
SplineSet
-5 180 m 2
 320 180 l 2
 459 180 588 211 706 272 c 2
 997 409 l 1
 794 521 l 10
 708 569 630 593 553 593 c 0
 465 593 402 562 323 500 c 2
 252 443 l 1
 137 572 l 1
 198 624 l 2
 318 725 421 776 547 776 c 0
 641 776 736 748 833 692 c 2
 1022 583 l 2
 1090 544 1160 520 1212 509 c 1
 1212 329 l 1
 794 118 l 2
 650 39 493 0 322 0 c 2
 -5 0 l 2
 -20 0 -30 29 -30 86 c 2
 -30 97 l 2
 -30 152 -20 180 -5 180 c 2
EndSplineSet
EndChar

StartChar: uniFEA4
Encoding: 65188 65188 175
GlifName: uniF_E_A_4
Width: 1349
VWidth: 2551
GlyphClass: 2
Flags: HW
AnchorPoint: "Anchor-7" 425 -242 basechar 0
AnchorPoint: "Anchor-10" 559 1103 basechar 0
LayerCount: 2
Fore
SplineSet
-5 180 m 2
 320 180 l 2
 459 180 588 210 706 272 c 2
 997 409 l 1
 794 521 l 10
 708 569 630 593 553 593 c 0
 465 593 402 562 323 500 c 2
 252 443 l 1
 137 572 l 1
 198 624 l 2
 318 725 421 776 547 776 c 0
 641 776 736 748 833 692 c 2
 1022 583 l 2
 1090 544 1160 520 1212 509 c 1
 1212 329 l 1
 1048 251 l 1
 1046 250 l 1
 1095.33789062 200.662109375 1154.81835938 180 1233 180 c 2
 1354 180 l 2
 1369 180 1377 152 1377 97 c 2
 1377 86 l 2
 1377 52.1240234375 1376.01855469 0 1354 0 c 2
 1236 0 l 2
 1064.33691406 0 978.004882812 76.9951171875 913 182 c 1
 794 118 l 2
 650 39 493 0 322 0 c 2
 -5 0 l 2
 -20 0 -30 29 -30 86 c 2
 -30 97 l 2
 -30 152 -20 180 -5 180 c 2
EndSplineSet
EndChar

StartChar: uniFEA9
Encoding: 65193 65193 180
GlifName: uniF_E_A_9
Width: 1004
VWidth: 2551
GlyphClass: 2
Flags: HW
AnchorPoint: "Anchor-7" 424 -225 basechar 0
AnchorPoint: "Anchor-10" 448 1166 basechar 0
LayerCount: 2
Fore
SplineSet
352 809 m 5
 473 945 l 1029
464 0 m 6
 100 0 l 5
 100 180 l 5
 465 180 l 1030
EndSplineSet
Refer: 23 1583 N 1 0 0 1 0 0 2
EndChar

StartChar: uniFEAA
Encoding: 65194 65194 181
GlifName: uniF_E_A_A_
Width: 1204
VWidth: 2551
GlyphClass: 2
Flags: HW
AnchorPoint: "Anchor-7" 424 -225 basechar 0
AnchorPoint: "Anchor-10" 448 1166 basechar 0
LayerCount: 2
Fore
SplineSet
878.388671875 180 m 5
 825.67849722 72.9837292271 690.426827629 -2.77292889697e-14 464 0 c 2
 100 0 l 1
 100 180 l 1
 465 180 l 2
 653.953835726 180 729.298156342 226.810346727 729.298156342 300.186990694 c 0
 729.298156342 351.45665703 692.514422266 415.696214196 632 486 c 2
 352 809 l 1
 473 945 l 1
 919 421 l 2
 1111.53417969 197.590820312 1135 180 1200 180 c 2
 1209 180 l 2
 1224 180 1232 152 1232 97 c 2
 1232 86 l 2
 1232 57 1230 35 1226 21 c 128
 1222 7 1216 0 1209 0 c 2
 1193 0 l 2
 1055.3684028 0 985.809570312 72.5791015625 878.388671875 180 c 5
EndSplineSet
EndChar

StartChar: uniFEAE
Encoding: 65198 65198 185
GlifName: uniF_E_A_E_
Width: 883
VWidth: 2551
GlyphClass: 2
Flags: HW
AnchorPoint: "Anchor-10" 511 953 basechar 0
AnchorPoint: "Anchor-7" 297 -619 basechar 0
LayerCount: 2
Fore
SplineSet
872 0 m 2
 765.51790278 0 694.015625 25.9716796875 658 79 c 1
 658 73 l 2
 658 -266 460 -462 86 -467 c 2
 14 -468 l 1
 14 -293 l 1
 84 -293 l 2
 343 -293 482 -165 482 72 c 2
 482 606 l 1
 657 606 l 1
 657 383 l 2
 657 248 729 180 872 180 c 2
 888 180 l 2
 903 180 911 152 911 97 c 2
 911 86 l 2
 911 29 903 0 888 0 c 2
 872 0 l 2
EndSplineSet
PairPos2: "'kern' Horizontal Kerning lookup 15-2" uniFE91 dx=-60 dy=0 dh=-60 dv=0 dx=0 dy=0 dh=0 dv=0
PairPos2: "'kern' Horizontal Kerning lookup 15-2" uniFB7C dx=-120 dy=0 dh=-120 dv=0 dx=0 dy=0 dh=0 dv=0
PairPos2: "'kern' Horizontal Kerning lookup 15-1" uniFEE7 dx=-178 dy=0 dh=-178 dv=0 dx=0 dy=0 dh=0 dv=0
PairPos2: "'kern' Horizontal Kerning lookup 15-2" uniFE8B dx=-178 dy=0 dh=-178 dv=0 dx=0 dy=0 dh=0 dv=0
PairPos2: "'kern' Horizontal Kerning lookup 15-2" uni0640 dx=-178 dy=0 dh=-178 dv=0 dx=0 dy=0 dh=0 dv=0
PairPos2: "'kern' Horizontal Kerning lookup 15-2" uni067E dx=-178 dy=0 dh=-178 dv=0 dx=0 dy=0 dh=0 dv=0
PairPos2: "'kern' Horizontal Kerning lookup 15-2" uni06AF dx=-180 dy=0 dh=-180 dv=0 dx=0 dy=0 dh=0 dv=0
PairPos2: "'kern' Horizontal Kerning lookup 15-2" uniFB92 dx=-180 dy=0 dh=-180 dv=0 dx=0 dy=0 dh=0 dv=0
PairPos2: "'kern' Horizontal Kerning lookup 15-2" uniFB94 dx=-180 dy=0 dh=-180 dv=0 dx=0 dy=0 dh=0 dv=0
PairPos2: "'kern' Horizontal Kerning lookup 15-2" uni0621 dx=-178 dy=0 dh=-178 dv=0 dx=0 dy=0 dh=0 dv=0
PairPos2: "'kern' Horizontal Kerning lookup 15-2" uni0622 dx=-163 dy=0 dh=-163 dv=0 dx=0 dy=0 dh=0 dv=0
PairPos2: "'kern' Horizontal Kerning lookup 15-2" uni0623 dx=-163 dy=0 dh=-163 dv=0 dx=0 dy=0 dh=0 dv=0
PairPos2: "'kern' Horizontal Kerning lookup 15-2" uni0627 dx=-163 dy=0 dh=-163 dv=0 dx=0 dy=0 dh=0 dv=0
PairPos2: "'kern' Horizontal Kerning lookup 15-2" uni0628 dx=-178 dy=0 dh=-178 dv=0 dx=0 dy=0 dh=0 dv=0
PairPos2: "'kern' Horizontal Kerning lookup 15-2" uni0629 dx=-178 dy=0 dh=-178 dv=0 dx=0 dy=0 dh=0 dv=0
PairPos2: "'kern' Horizontal Kerning lookup 15-2" uni062A dx=-178 dy=0 dh=-178 dv=0 dx=0 dy=0 dh=0 dv=0
PairPos2: "'kern' Horizontal Kerning lookup 15-2" uniFE97 dx=-178 dy=0 dh=-178 dv=0 dx=0 dy=0 dh=0 dv=0
PairPos2: "'kern' Horizontal Kerning lookup 15-2" uni062B dx=-178 dy=0 dh=-178 dv=0 dx=0 dy=0 dh=0 dv=0
PairPos2: "'kern' Horizontal Kerning lookup 15-2" uniFE9B dx=-178 dy=0 dh=-178 dv=0 dx=0 dy=0 dh=0 dv=0
PairPos2: "'kern' Horizontal Kerning lookup 15-2" uniFE9F dx=-178 dy=0 dh=-178 dv=0 dx=0 dy=0 dh=0 dv=0
PairPos2: "'kern' Horizontal Kerning lookup 15-2" uniFEA3 dx=-178 dy=0 dh=-178 dv=0 dx=0 dy=0 dh=0 dv=0
PairPos2: "'kern' Horizontal Kerning lookup 15-2" uniFEA7 dx=-178 dy=0 dh=-178 dv=0 dx=0 dy=0 dh=0 dv=0
PairPos2: "'kern' Horizontal Kerning lookup 15-2" uni062F dx=-178 dy=0 dh=-178 dv=0 dx=0 dy=0 dh=0 dv=0
PairPos2: "'kern' Horizontal Kerning lookup 15-2" uni0630 dx=-178 dy=0 dh=-178 dv=0 dx=0 dy=0 dh=0 dv=0
PairPos2: "'kern' Horizontal Kerning lookup 15-2" uni0633 dx=-178 dy=0 dh=-178 dv=0 dx=0 dy=0 dh=0 dv=0
PairPos2: "'kern' Horizontal Kerning lookup 15-2" uniFEB3 dx=-178 dy=0 dh=-178 dv=0 dx=0 dy=0 dh=0 dv=0
PairPos2: "'kern' Horizontal Kerning lookup 15-2" uni0634 dx=-178 dy=0 dh=-178 dv=0 dx=0 dy=0 dh=0 dv=0
PairPos2: "'kern' Horizontal Kerning lookup 15-2" uniFEB7 dx=-178 dy=0 dh=-178 dv=0 dx=0 dy=0 dh=0 dv=0
PairPos2: "'kern' Horizontal Kerning lookup 15-2" uni0635 dx=-178 dy=0 dh=-178 dv=0 dx=0 dy=0 dh=0 dv=0
PairPos2: "'kern' Horizontal Kerning lookup 15-2" uniFEBB dx=-178 dy=0 dh=-178 dv=0 dx=0 dy=0 dh=0 dv=0
PairPos2: "'kern' Horizontal Kerning lookup 15-2" uni0636 dx=-178 dy=0 dh=-178 dv=0 dx=0 dy=0 dh=0 dv=0
PairPos2: "'kern' Horizontal Kerning lookup 15-2" uniFEBF dx=-178 dy=0 dh=-178 dv=0 dx=0 dy=0 dh=0 dv=0
PairPos2: "'kern' Horizontal Kerning lookup 15-2" uni0637 dx=-178 dy=0 dh=-178 dv=0 dx=0 dy=0 dh=0 dv=0
PairPos2: "'kern' Horizontal Kerning lookup 15-2" uniFEC3 dx=-178 dy=0 dh=-178 dv=0 dx=0 dy=0 dh=0 dv=0
PairPos2: "'kern' Horizontal Kerning lookup 15-2" uni0638 dx=-178 dy=0 dh=-178 dv=0 dx=0 dy=0 dh=0 dv=0
PairPos2: "'kern' Horizontal Kerning lookup 15-2" uniFEC7 dx=-178 dy=0 dh=-178 dv=0 dx=0 dy=0 dh=0 dv=0
PairPos2: "'kern' Horizontal Kerning lookup 15-2" uniFECB dx=-178 dy=0 dh=-178 dv=0 dx=0 dy=0 dh=0 dv=0
PairPos2: "'kern' Horizontal Kerning lookup 15-2" uniFECF dx=-178 dy=0 dh=-178 dv=0 dx=0 dy=0 dh=0 dv=0
PairPos2: "'kern' Horizontal Kerning lookup 15-2" uni0641 dx=-178 dy=0 dh=-178 dv=0 dx=0 dy=0 dh=0 dv=0
PairPos2: "'kern' Horizontal Kerning lookup 15-2" uniFED3 dx=-178 dy=0 dh=-178 dv=0 dx=0 dy=0 dh=0 dv=0
PairPos2: "'kern' Horizontal Kerning lookup 15-2" uniFED7 dx=-178 dy=0 dh=-178 dv=0 dx=0 dy=0 dh=0 dv=0
PairPos2: "'kern' Horizontal Kerning lookup 15-2" uni0643 dx=-143 dy=0 dh=-143 dv=0 dx=0 dy=0 dh=0 dv=0
PairPos2: "'kern' Horizontal Kerning lookup 15-2" uniFEDB dx=-180 dy=0 dh=-180 dv=0 dx=0 dy=0 dh=0 dv=0
PairPos2: "'kern' Horizontal Kerning lookup 15-2" uni0644 dx=-60 dy=0 dh=-60 dv=0 dx=0 dy=0 dh=0 dv=0
PairPos2: "'kern' Horizontal Kerning lookup 15-2" uniFEDF dx=-143 dy=0 dh=-143 dv=0 dx=0 dy=0 dh=0 dv=0
PairPos2: "'kern' Horizontal Kerning lookup 15-2" uniFEFB dx=-143 dy=0 dh=-143 dv=0 dx=0 dy=0 dh=0 dv=0
PairPos2: "'kern' Horizontal Kerning lookup 15-2" uni0645 dx=-178 dy=0 dh=-178 dv=0 dx=0 dy=0 dh=0 dv=0
PairPos2: "'kern' Horizontal Kerning lookup 15-2" uniFEE3 dx=-178 dy=0 dh=-178 dv=0 dx=0 dy=0 dh=0 dv=0
PairPos2: "'kern' Horizontal Kerning lookup 15-2" uni0647 dx=-178 dy=0 dh=-178 dv=0 dx=0 dy=0 dh=0 dv=0
PairPos2: "'kern' Horizontal Kerning lookup 15-2" uniFEEB dx=-178 dy=0 dh=-178 dv=0 dx=0 dy=0 dh=0 dv=0
PairPos2: "'kern' Horizontal Kerning lookup 15-2" uni06A9 dx=-180 dy=0 dh=-180 dv=0 dx=0 dy=0 dh=0 dv=0
PairPos2: "'kern' Horizontal Kerning lookup 15-2" uniFB8E dx=-180 dy=0 dh=-180 dv=0 dx=0 dy=0 dh=0 dv=0
PairPos2: "'kern' Horizontal Kerning lookup 15-2" uniFB90 dx=-180 dy=0 dh=-180 dv=0 dx=0 dy=0 dh=0 dv=0
PairPos2: "'kern' Horizontal Kerning lookup 15-2" uni0631 dx=-30 dy=0 dh=-30 dv=0 dx=0 dy=0 dh=0 dv=0
PairPos2: "'kern' Horizontal Kerning lookup 15-2" uni0632 dx=-30 dy=0 dh=-30 dv=0 dx=0 dy=0 dh=0 dv=0
PairPos2: "'kern' Horizontal Kerning lookup 15-2" uni0624 dx=-30 dy=0 dh=-30 dv=0 dx=0 dy=0 dh=0 dv=0
PairPos2: "'kern' Horizontal Kerning lookup 15-2" uni0648 dx=-30 dy=0 dh=-30 dv=0 dx=0 dy=0 dh=0 dv=0
PairPos2: "'kern' Horizontal Kerning lookup 15-2" uni0698 dx=-40 dy=0 dh=-40 dv=0 dx=0 dy=0 dh=0 dv=0
PairPos2: "'kern' Horizontal Kerning lookup 15-5" uni06C0 dx=-178 dy=0 dh=-178 dv=0 dx=0 dy=0 dh=0 dv=0
EndChar

StartChar: uniFEB2
Encoding: 65202 65202 189
GlifName: uniF_E_B_2
Width: 2619
VWidth: 2551
GlyphClass: 2
Flags: HW
AnchorPoint: "Anchor-10" 1775 1064 basechar 0
AnchorPoint: "Anchor-7" 688 -668 basechar 0
LayerCount: 2
Fore
SplineSet
2063 0 m 4
 1933.45019531 0 1852.81347656 47.3740234375 1796 141 c 1
 1741.93457031 44.7373046875 1649.46289062 0 1521 0 c 0
 1440.40527344 0.958984375 1369.04936461 26.2675138471 1325 85 c 1
 1325 52 l 2
 1325 -283 1130 -449 744 -449 c 2
 693 -449 l 2
 299 -449 100 -267 100 101 c 2
 100 442 l 1
 274 442 l 1
 274 102 l 2
 274 -146 415 -270 693 -270 c 2
 744 -270 l 2
 1022 -270 1161 -164 1161 47 c 2
 1161 631 l 1
 1337 631 l 1
 1337 397 l 2
 1337 250.379112201 1402.33014052 179.97807634 1527.1994098 179.97807634 c 0
 1643.00407231 179.97807634 1705 245.890625 1705 373 c 2
 1706 634 l 1
 1876 634 l 1
 1877 375 l 2
 1878.00488281 245.375 1938.65039062 180.98828125 2059.78125 180.9765625 c 4
 2168.73730469 180.9765625 2210 245.947265625 2210 373 c 6
 2210 634 l 5
 2373 634 l 5
 2374 376 l 6
 2375 246 2449 180 2597 180 c 6
 2625 180 l 6
 2640 180 2648 152 2648 97 c 6
 2648 86 l 6
 2648 58.6064453125 2648 0 2625 0 c 6
 2605 0 l 6
 2455.31835938 0 2356.41210938 46.8818359375 2295 139 c 5
 2243.09667969 43.2900390625 2181.32128906 0 2063 0 c 4
EndSplineSet
EndChar

StartChar: uniFEB3
Encoding: 65203 65203 190
GlifName: uniF_E_B_3
Width: 1640
VWidth: 2551
GlyphClass: 2
Flags: HW
AnchorPoint: "Anchor-10" 925 1080 basechar 0
AnchorPoint: "Anchor-7" 846 -241 basechar 0
LayerCount: 2
Fore
SplineSet
1225 0 m 4
 1094.44971956 0 1013.81316445 47.3736710955 957 141 c 5
 902.934285191 44.7371407631 810.462542059 0 682 0 c 4
 565.641846663 0 479.178591835 44.4642244948 417 141 c 5
 355.41129204 48.6169380605 256.15721685 0 89 0 c 6
 -5 0 l 6
 -20 0 -30 29 -30 86 c 6
 -30 97 l 6
 -30 152 -20 180 -5 180 c 6
 90 180 l 6
 245 180 327 245 327 374 c 6
 327 634 l 5
 498 634 l 5
 499 372 l 6
 500.006654546 244.154872702 561.8394921 179.988635494 685.696236909 179.988635494 c 4
 803.04161361 179.988635494 866 244.977539062 866 373 c 6
 867 634 l 5
 1037 634 l 5
 1038 375 l 6
 1039.00484458 245.375048721 1099.65039062 180.98828125 1219.27539062 180.98828125 c 4
 1316.75097656 180.98828125 1365 243.984673653 1365 371 c 6
 1365 666 l 5
 1540 666 l 5
 1540 363 l 6
 1540 131 1425 0 1225 0 c 4
EndSplineSet
EndChar

StartChar: uniFEB4
Encoding: 65204 65204 191
GlifName: uniF_E_B_4
Width: 1781
VWidth: 2546
GlyphClass: 2
Flags: HW
AnchorPoint: "Anchor-7" 846 -241 basechar 0
AnchorPoint: "Anchor-10" 925 1080 basechar 0
LayerCount: 2
Fore
SplineSet
1225 0 m 4
 1094.45019531 0 1013.81347656 47.3740234375 957 141 c 1
 902.934570312 44.7373046875 810.462890625 0 682 0 c 0
 565.641601562 0 479.178710938 44.4638671875 417 141 c 1
 355.411132812 48.6171875 256.157226562 0 89 0 c 2
 -5 0 l 2
 -20 0 -30 29 -30 86 c 2
 -30 97 l 2
 -30 152 -20 180 -5 180 c 2
 90 180 l 2
 245 180 327 245 327 374 c 2
 327 634 l 1
 498 634 l 1
 499 372 l 2
 500.006835938 244.155273438 561.83984375 179.98828125 685.696289062 179.98828125 c 0
 803.041992188 179.98828125 866 244.977539062 866 373 c 2
 867 634 l 1
 1037 634 l 1
 1038 375 l 2
 1039.01651276 243.874793607 1100.38769531 180.9765625 1221.78125 180.9765625 c 4
 1320.73730469 180.9765625 1367 245.947265625 1367 373 c 6
 1367 634 l 5
 1535 634 l 5
 1536 376 l 6
 1537 246 1611 180 1759 180 c 6
 1787 180 l 6
 1802 180 1810 152 1810 97 c 6
 1810 86 l 6
 1810 58.6064453125 1810 0 1787 0 c 6
 1767 0 l 6
 1617.31835938 0 1518.41210938 46.8818359375 1457 139 c 5
 1405.09667969 43.2900390625 1343.32128906 0 1225 0 c 4
EndSplineSet
EndChar

StartChar: uniFEBA
Encoding: 65210 65210 197
GlifName: uniF_E_B_A_
Width: 2561
VWidth: 2551
GlyphClass: 2
Flags: HW
AnchorPoint: "Anchor-10" 1977 1148 basechar 0
AnchorPoint: "Anchor-7" 688 -668 basechar 0
LayerCount: 2
Fore
SplineSet
2004 592 m 0
 1869 592 1741 454 1617 180 c 1
 1978 180 l 2
 2128 180 2230 225 2230 347 c 0
 2230 487 2127 592 2004 592 c 0
1958 0 m 2
 1618 0 l 2
 1461 0 1364 29 1325 87 c 1
 1325 52 l 2
 1325 -283 1130 -449 744 -449 c 2
 693 -449 l 2
 299 -449 100 -267 100 101 c 2
 100 442 l 1
 274 442 l 1
 274 102 l 2
 274 -146 415 -270 693 -270 c 2
 744 -270 l 2
 1022 -270 1161 -164 1161 47 c 2
 1161 631 l 1
 1337 631 l 1
 1337 417 l 2
 1337 281.770211554 1380.75384672 214.623076639 1444 203 c 1
 1609.54105464 574.082109278 1766.68945312 775 2015 775 c 0
 2233 775 2405 590 2405 367 c 0
 2405 294 2388 232 2358 180 c 9
 2566 180 l 2
 2581 180 2589 151 2589 94 c 2
 2589 83 l 2
 2589 28 2581 0 2566 0 c 2
 2537 0 l 2
 2406 0 2318 19 2259 78 c 1
 2181 24 2082 0 1958 0 c 2
EndSplineSet
EndChar

StartChar: uniFEBB
Encoding: 65211 65211 198
GlifName: uniF_E_B_B_
Width: 1658
VWidth: 2551
GlyphClass: 2
Flags: HW
AnchorPoint: "Anchor-10" 1127 1148 basechar 0
AnchorPoint: "Anchor-7" 674 -250 basechar 0
LayerCount: 2
Fore
SplineSet
-5 180 m 2
 71 180 l 2
 217 180 295 249 295 386 c 2
 295 633 l 1
 463 633 l 1
 464 382 l 2
 464.46875 264.31640625 514.126953125 203 597 203 c 1
 762.541015625 574.08203125 920.689453125 775 1168 775 c 0
 1386.33691406 775 1558 589.532226562 1558 367 c 0
 1558 124.173828125 1376 0 1111 0 c 2
 771 0 l 2
 569 0 444 45 391 135 c 1
 389 138 l 1
 328.583984375 47.375 234 0 78 0 c 2
 -5 0 l 2
 -20 0 -30 29 -30 86 c 2
 -30 97 l 2
 -30 152 -20 180 -5 180 c 2
1383 347 m 0
 1383 487.4765625 1279.93945312 592 1157 592 c 0
 1023 592 894 454 770 180 c 1
 1131 180 l 2
 1280.94628906 180 1383 224.791992188 1383 347 c 0
EndSplineSet
EndChar

StartChar: uniFEBC
Encoding: 65212 65212 199
GlifName: uniF_E_B_C_
Width: 1713
VWidth: 2551
GlyphClass: 2
Flags: HW
AnchorPoint: "Anchor-10" 1127 1148 basechar 0
AnchorPoint: "Anchor-7" 674 -250 basechar 0
LayerCount: 2
Fore
SplineSet
-5 180 m 2
 71 180 l 2
 217 180 295 249 295 386 c 2
 295 633 l 1
 463 633 l 1
 464 382 l 2
 464 264 514 203 597 203 c 1
 763 574 921 775 1168 775 c 0
 1386 775 1558 590 1558 367 c 0
 1558 294 1541 232 1511 180 c 9
 1719 180 l 2
 1734 180 1742 151 1742 94 c 2
 1742 83 l 2
 1742 28 1734 0 1719 0 c 2
 1690 0 l 2
 1559 0 1471 19 1412 78 c 1
 1334 24 1235 -1.51856203094e-14 1111 0 c 2
 771 0 l 2
 569 0 444 45 391 135 c 1
 389 138 l 1
 329 47 234 0 78 0 c 2
 -5 0 l 2
 -20 0 -30 29 -30 86 c 2
 -30 97 l 2
 -30 152 -20 180 -5 180 c 2
1383 347 m 0
 1383 487 1280 592 1157 592 c 0
 1023 592 894 454 770 180 c 1
 1131 180 l 2
 1281 180 1383 225 1383 347 c 0
EndSplineSet
EndChar

StartChar: uniFEC2
Encoding: 65218 65218 205
GlifName: uniF_E_C_2
Width: 1414
VWidth: 2551
GlyphClass: 2
Flags: HW
AnchorPoint: "Anchor-10" 447 1463 basechar 0
AnchorPoint: "Anchor-7" 610 -238 basechar 0
LayerCount: 2
Fore
SplineSet
857 592 m 0
 722 592 594 454 470 180 c 1
 831 180 l 2
 981 180 1083 225 1083 347 c 0
 1083 487 980 592 857 592 c 0
811 0 m 2
 100 0 l 1
 100 180 l 1
 289 180 l 1
 315 243 342 292 369 346 c 1
 369 1335 l 1
 535 1335 l 1
 535 599 l 1
 632 708 740 775 868 775 c 0
 1086 775 1258 590 1258 367 c 0
 1258 294 1241 232 1211 180 c 9
 1419 180 l 2
 1434 180 1442 151 1442 94 c 2
 1442 83 l 2
 1442 28 1434 0 1419 0 c 2
 1390 0 l 2
 1259 0 1171 19 1112 78 c 1
 1034 24 935 0 811 0 c 2
EndSplineSet
EndChar

StartChar: uniFEC3
Encoding: 65219 65219 206
GlifName: uniF_E_C_3
Width: 1230
VWidth: 2551
GlyphClass: 2
Flags: HW
AnchorPoint: "Anchor-10" 327 1463 basechar 0
AnchorPoint: "Anchor-7" 460 -238 basechar 0
LayerCount: 2
Fore
SplineSet
-6 180 m 2
 161 180 l 5
 187 243 214 292 241 346 c 5
 241 1335 l 5
 407 1335 l 5
 407 599 l 5
 504 708 613 775 740 775 c 4
 958 775 1130 590 1130 367 c 4
 1130 124 948 0 683 0 c 6
 -6 0 l 2
 -21 0 -31 29 -31 86 c 2
 -31 97 l 2
 -31 152 -21 180 -6 180 c 2
955 347 m 4
 955 487 852 592 729 592 c 4
 595 592 466 454 342 180 c 5
 703 180 l 6
 853 180 955 225 955 347 c 4
EndSplineSet
EndChar

StartChar: uniFEC4
Encoding: 65220 65220 207
GlifName: uniF_E_C_4
Width: 1286
VWidth: 2551
GlyphClass: 2
Flags: HW
AnchorPoint: "Anchor-10" 327 1463 basechar 0
AnchorPoint: "Anchor-7" 480 -238 basechar 0
LayerCount: 2
Fore
SplineSet
-5 180 m 2
 161 180 l 5
 187 243 214 292 241 346 c 5
 241 1335 l 5
 407 1335 l 5
 407 599 l 5
 504 708 612 775 740 775 c 4
 958 775 1130 590 1130 367 c 4
 1130 294 1113 232 1083 180 c 13
 1291 180 l 6
 1306 180 1314 151 1314 94 c 6
 1314 83 l 6
 1314 28 1306 0 1291 0 c 6
 1262 0 l 6
 1131 0 1043 19 984 78 c 5
 906 24 807 0 683 0 c 6
 -5 0 l 2
 -20 0 -30 29 -30 86 c 2
 -30 97 l 2
 -30 152 -20 180 -5 180 c 2
729 592 m 4
 594 592 466 454 342 180 c 5
 703 180 l 6
 853 180 955 225 955 347 c 4
 955 487 852 592 729 592 c 4
EndSplineSet
EndChar

StartChar: uniFECA
Encoding: 65226 65226 213
GlifName: uniF_E_C_A_
Width: 1225
VWidth: 2551
GlyphClass: 2
Flags: HW
AnchorPoint: "Anchor-7" 713 -898 basechar 0
AnchorPoint: "Anchor-10" 654 1112 basechar 0
LayerCount: 2
Fore
SplineSet
661 339 m 1
 661 339 946 501 946 544 c 0
 946 593 823 624 660 624 c 0
 500 624 376 593 376 544 c 0
 376 501 661 339 661 339 c 1
485 261 m 1
 485 261 197 427 197 545 c 0
 197 726 399 794 662 794 c 0
 925 794 1126 726 1126 545 c 0
 1126 427 807 242 807 242 c 1
 911 199 984 180 1137 180 c 2
 1230 180 l 2
 1245 180 1253 152 1253 97 c 2
 1253 86 l 2
 1253 52 1252 0 1230 0 c 2
 1126 0 l 2
 938 0 795 50 638 150 c 1
 387 30 272 -107 272 -218 c 0
 272 -439 438 -519 792 -519 c 2
 1114 -519 l 1
 1114 -695 l 1
 780 -695 l 2
 366 -695 100 -560 100 -225 c 0
 100 -33 266 138 485 261 c 1
EndSplineSet
EndChar

StartChar: uniFECB
Encoding: 65227 65227 214
GlifName: uniF_E_C_B_
Width: 1020
VWidth: 2551
GlyphClass: 2
Flags: HW
AnchorPoint: "Anchor-10" 527 1252 basechar 0
AnchorPoint: "Anchor-7" 461 -246 basechar 0
LayerCount: 2
Fore
SplineSet
-5 180 m 6
 304 180 l 1
 218.967773438 255.032226562 168 340.258789062 168 451 c 0
 168 680.150390625 332.686523438 846 564 846 c 0
 694 846 800 796 881 697 c 1
 808 564 l 1
 740 629 661 662 569 662 c 0
 448.928710938 662 343 580.833007812 343 452 c 0
 343 388 375 331 438 281 c 0
 494 235 539 211 574 211 c 0
 598 211 643 219 708 234 c 2
 920 285 l 1
 920 104 l 1
 686 34 481 0 305 0 c 2
 -5 0 l 6
 -20 0 -30 29 -30 86 c 6
 -30 97 l 6
 -30 152 -20 180 -5 180 c 6
EndSplineSet
EndChar

StartChar: uniFEDA
Encoding: 65242 65242 229
GlifName: uniF_E_D_A_
Width: 1969
VWidth: 2551
GlyphClass: 2
Flags: HW
AnchorPoint: "Anchor-10" 948.836 1275.23 basechar 0
AnchorPoint: "Anchor-7" 850 -233 basechar 0
LayerCount: 2
Fore
SplineSet
860.8359375 619.23046875 m 0
 950.5703125 619.23046875 1036.8359375 629.86328125 1036.8359375 698.23046875 c 0
 1036.8359375 794.490234375 771.7265625 722.5859375 771.7265625 928.451171875 c 0
 771.7265625 1051.7442472 867.264321853 1128.58300781 1039.765625 1128.58300781 c 0
 1067.63964844 1128.58300781 1096.73535156 1126.45605469 1125.8359375 1122.23046875 c 1
 1125.8359375 1016.23046875 l 1
 1102.26367188 1018.66503906 1077.14746094 1020.28027344 1052.36425781 1020.28027344 c 0
 966.607421875 1020.28027344 884.8359375 1000.93652344 884.8359375 929.23046875 c 0
 884.8359375 803.825195312 1146.8359375 891.7578125 1146.8359375 717.23046875 c 0
 1146.8359375 552.068359375 1003.08007812 504 846 504 c 0
 802.624023438 504 749.674804688 510.5390625 702.8359375 517.23046875 c 1
 702.8359375 631.23046875 l 1
 753.642578125 625.787109375 808.447265625 619.23046875 860.8359375 619.23046875 c 0
1671 147 m 2
 1615 49 1507 0 1347 0 c 2
 535 0 l 2
 247 0 102 148 102 442 c 2
 102 653 l 1
 277 653 l 1
 277 443 l 2
 277 268 364 180 538 180 c 2
 1352 180 l 2
 1504 180 1579 269 1579 448 c 2
 1579 1333 l 1
 1746 1333 l 1
 1746 445 l 2
 1746 275 1813 186 1948 180 c 6
 1975 180 l 2
 1983 179 1988 173 1992 159 c 0
 1996 146 1998 125 1998 96 c 2
 1998 85 l 2
 1998 28 1991 -1 1975 -1 c 2
 1943 -1 l 2
 1824 -1 1735 48 1675 147 c 2
 1673 150 l 1
 1671 147 l 2
EndSplineSet
EndChar

StartChar: uniFEDB
Encoding: 65243 65243 230
GlifName: uniF_E_D_B_
Width: 938
VWidth: 2551
GlyphClass: 2
Flags: HW
AnchorPoint: "Anchor-10" 276 1388 basechar 0
AnchorPoint: "Anchor-7" 349 -221 basechar 0
LayerCount: 2
Fore
SplineSet
-5 180 m 2
 343 180 l 2
 509 180 593 225 593 314 c 0
 593 351 556 412 481 497 c 2
 167 862 l 2
 134.603515625 899.658203125 111 943 111 998 c 0
 112 1078 153 1131 230 1156 c 2
 854 1360 l 1
 854 1181 l 1
 284 995 l 1
 592 638 l 2
 706.09765625 505.750976562 759.021484375 410.977539062 759.021484375 313.68359375 c 0
 759.021484375 111.5546875 619 0 341 0 c 2
 -5 0 l 2
 -20 0 -30 29 -30 86 c 2
 -30 97 l 2
 -30 152 -20 180 -5 180 c 2
EndSplineSet
EndChar

StartChar: uniFEDC
Encoding: 65244 65244 231
GlifName: uniF_E_D_C_
Width: 1106
VWidth: 2551
GlyphClass: 2
Flags: HW
AnchorPoint: "Anchor-7" 349 -221 basechar 0
AnchorPoint: "Anchor-10" 276 1388 basechar 0
LayerCount: 2
Fore
SplineSet
-5 180 m 2
 343 180 l 2
 509 180 593 225 593 314 c 0
 593 351 556 412 481 497 c 2
 167 862 l 2
 133.2578125 901.221679688 111 943 111 998 c 0
 112 1078 153 1131 230 1156 c 2
 854 1360 l 1
 854 1181 l 1
 284 995 l 1
 855 335 l 2
 943.568359375 232.626953125 1021 181 1087 180 c 1
 1111 180 l 2
 1126 180 1134 152 1134 97 c 2
 1134 86 l 2
 1134 29 1126 0 1111 0 c 2
 1096 0 l 2
 960 0 844 67 746 201 c 1
 744 204 l 1
 698.634765625 67.904296875 567 0 341 0 c 2
 -5 0 l 2
 -20 0 -30 29 -30 86 c 2
 -30 97 l 2
 -30 152 -20 180 -5 180 c 2
EndSplineSet
EndChar

StartChar: uniFEDE
Encoding: 65246 65246 233
GlifName: uniF_E_D_E_
Width: 1387
VWidth: 2551
GlyphClass: 2
Flags: HW
AnchorPoint: "Anchor-10" 599 994.1 basechar 0
AnchorPoint: "Anchor-7" 659 -644 basechar 0
LayerCount: 2
Fore
SplineSet
1190 382 m 2
 1190 244 1247 180 1354 180 c 2
 1392 180 l 2
 1407 180 1417 152 1417 97 c 2
 1417 86 l 2
 1417 58 1418 0 1392 0 c 2
 1361 0 l 2
 1279 0 1232 23 1190 59 c 1
 1190 -264 1022 -447 687 -447 c 2
 641 -447 l 2
 280 -447 100 -265 100 101 c 2
 100 442 l 1
 274 442 l 1
 274 102 l 2
 274 -143 397 -266 641 -266 c 2
 694 -266 l 2
 915 -266 1025 -149 1025 86 c 2
 1025 1333 l 1
 1191 1333 l 1
 1190 382 l 2
EndSplineSet
EndChar

StartChar: uniFEDF
Encoding: 65247 65247 234
GlifName: uniF_E_D_F_
Width: 621
VWidth: 2551
GlyphClass: 2
Flags: HW
AnchorPoint: "Anchor-10" 382 1462 basechar 0
AnchorPoint: "Anchor-7" 229 -232 basechar 0
LayerCount: 2
Fore
SplineSet
-5 180 m 6
 117 180 l 6
 246 180 311 244 311 371 c 6
 311 1334 l 5
 478 1334 l 5
 478 372 l 6
 478 127 357 0 116 0 c 6
 -5 0 l 6
 -20 0 -30 29 -30 86 c 6
 -30 97 l 6
 -30 152 -20 180 -5 180 c 6
EndSplineSet
EndChar

StartChar: uniFEE0
Encoding: 65248 65248 235
GlifName: uniF_E_E_0
Width: 679
VWidth: 2551
GlyphClass: 2
Flags: HW
AnchorPoint: "Anchor-10" 387 1461 basechar 0
AnchorPoint: "Anchor-7" 279 -225 basechar 0
LayerCount: 2
Fore
SplineSet
-5 180 m 2
 108 180 l 2
 243 180 311 242 311 367 c 2
 311 1334 l 1
 477 1334 l 1
 477 367 l 2
 477 243 528 180 669 180 c 2
 685 180 l 2
 700 180 708 152 708 97 c 2
 708 86 l 2
 708 29 701 0 685 0 c 2
 659 0 l 2
 534.303710938 0 453.869140625 48.130859375 391 131 c 1
 325.198242188 39.3955078125 216.018554688 0 110 0 c 2
 -5 0 l 2
 -20 0 -30 29 -30 86 c 2
 -30 97 l 2
 -30 152 -20 180 -5 180 c 2
EndSplineSet
EndChar

StartChar: uniFEE2
Encoding: 65250 65250 237
GlifName: uniF_E_E_2
Width: 1387
VWidth: 2551
GlyphClass: 2
Flags: HW
AnchorPoint: "Anchor-7" 772 -278 basechar 0
AnchorPoint: "Anchor-10" 722 1136 basechar 0
LayerCount: 2
Fore
SplineSet
840 569 m 2
 681 569 l 1
 681 368 l 2
 681 215 743 139 866 139 c 0
 977 139 1032 215 1032 368 c 2
 1032 410 l 2
 1032 516 968 569 840 569 c 2
1415 86 m 2
 1415 58.4462890625 1410.37402344 -2.25016889902e-15 1392 0 c 2
 1357 0 l 2
 1252.55957031 0 1186.65136719 31.3486328125 1130 88 c 1
 1071.84667969 11.693359375 972.896484375 -20 866 -20 c 0
 627 -20 508 108 508 366 c 2
 508 554 l 1
 326.08203125 554 270 387.103515625 270 159 c 2
 270 -496 l 1
 100 -496 l 1
 100 160 l 2
 100 548 256 741 580 741 c 2
 855 741 l 2
 1088 741 1205 631 1205 411 c 2
 1205 367 l 2
 1205 241.996000064 1253 180 1353 180 c 2
 1392 180 l 2
 1407 180 1415 152 1415 97 c 2
 1415 86 l 2
EndSplineSet
EndChar

StartChar: uniFEE3
Encoding: 65251 65251 238
GlifName: uniF_E_E_3
Width: 1000
VWidth: 2551
GlyphClass: 2
Flags: HW
AnchorPoint: "Anchor-10" 546 1078 basechar 0
AnchorPoint: "Anchor-7" 528 -246 basechar 0
LayerCount: 2
Fore
SplineSet
-5 180 m 2
 95 180 l 2
 187 180 227.485726583 206.114474278 231 260 c 0
 234 306 234 335 234 375 c 0
 234 637 353 761 563 761 c 0
 789 761 900 638 900 373 c 0
 900 122 783 -14 563 -14 c 0
 444 -14 377 18 312 83 c 1
 263.208175913 25.4163518264 195.483112208 0 97 0 c 2
 -5 0 l 2
 -20 0 -30 29 -30 86 c 2
 -30 97 l 2
 -30 152 -20 180 -5 180 c 2
565 160 m 0
 672 160 729 233 729 377 c 0
 729 515 675 583 564 583 c 0
 455 583 401 515 401 377 c 0
 401 233 458 160 565 160 c 0
EndSplineSet
EndChar

StartChar: uniFEE4
Encoding: 65252 65252 239
GlifName: uniF_E_E_4
Width: 1061
VWidth: 2551
GlyphClass: 2
Flags: HW
AnchorPoint: "Anchor-7" 528 -246 basechar 0
AnchorPoint: "Anchor-10" 546 1086 basechar 0
LayerCount: 2
Fore
SplineSet
-5 180 m 2
 95 180 l 2
 187 180 227 206 231 260 c 0
 234 306 234 335 234 375 c 0
 234 637 353 761 563 761 c 0
 789 761 900 638 900 373 c 0
 900 328.644140631 888.987480254 268.275529603 888.987480254 250.728249727 c 0
 888.987480254 200.650634946 947.710013732 180 1032 180 c 2
 1066 180 l 2
 1081 180 1089 152 1089 97 c 2
 1089 86 l 2
 1089 29 1079 -1.59204083889e-15 1066 0 c 6
 1034 0 l 2
 949 0 862 29 815 85 c 1
 759 20 672 -14 563 -14 c 0
 444 -14 377 18 312 83 c 1
 263.208175913 25.4163518264 195.483112208 0 97 0 c 2
 -5 0 l 2
 -20 0 -30 29 -30 86 c 2
 -30 97 l 2
 -30 152 -20 180 -5 180 c 2
565 160 m 0
 672 160 729 233 729 377 c 0
 729 515 675 583 564 583 c 0
 455 583 401 515 401 377 c 0
 401 233 458 160 565 160 c 0
EndSplineSet
EndChar

StartChar: uniFEEA
Encoding: 65258 65258 245
GlifName: uniF_E_E_A_
Width: 1060
VWidth: 2551
GlyphClass: 2
Flags: HW
AnchorPoint: "Anchor-10" 651 1160 basechar 0
AnchorPoint: "Anchor-7" 595 -222 basechar 0
LayerCount: 2
Fore
SplineSet
1065 0 m 2
 1019 0 l 2
 864 0 745 62 692 187 c 1
 513 187 l 2
 213 187 100 308 100 457 c 0
 100 644.731445312 245.374023438 756.553710938 544 811.640625 c 2
 609 822 l 1
 601 889 l 1
 759 914 l 1
 827 341 l 2
 849 216 917 180 1030 180 c 2
 1065 180 l 2
 1082 180 1090 153 1090 99 c 2
 1090 88 l 2
 1090 29 1082 0 1065 0 c 2
664 360 m 1
 629 646 l 1
 571 637.471679688 l 2
 395.173828125 611.616210938 264 558.318359375 264 470 c 0
 264 389 347 360 498 360 c 2
 664 360 l 1
EndSplineSet
EndChar

StartChar: uniFEEB
Encoding: 65259 65259 246
GlifName: uniF_E_E_B_
Width: 1309
VWidth: 2551
GlyphClass: 2
Flags: HW
AnchorPoint: "Anchor-10" 640 1192 basechar 0
AnchorPoint: "Anchor-7" 559 -281 basechar 0
LayerCount: 2
Fore
SplineSet
-6 180 m 6
 291 180 l 5
 209.188476562 244.541015625 176 327.938476562 176 431 c 4
 176 642.350585938 326.025390625 791 510 791 c 4
 573.708984375 791 617.248046875 779.375976562 664 756 c 5
 752 885 l 5
 1060 637 1209 432 1209 260 c 4
 1209 79.310546875 1084.37988281 -56 916 -56 c 4
 773 -56 635 -20 471 55 c 5
 340 19 218.165089077 -1.56956966101e-14 90 0 c 6
 -6 0 l 6
 -21 0 -31 29 -31 86 c 6
 -31 97 l 6
 -31 152 -21 180 -6 180 c 6
480 232 m 5
 587.310546875 274.248046875 682.830078125 360.803710938 682.830078125 465.6171875 c 4
 682.830078125 550.659179688 624.223632812 631 532 631 c 4
 415.831054688 631 338 547.62109375 338 429 c 4
 338 351.737304688 385.782226562 262 480 232 c 5
790 625 m 5
 820.983398438 565.048828125 834.501953125 504.982421875 834.501953125 455.202148438 c 4
 834.501953125 307.361328125 714.084960938 203.137695312 649 159 c 5
 749 123 842.533203125 114 901 114 c 4
 986.737304688 114 1044 195.754882812 1044 259 c 4
 1044 348.711914062 962.3984375 462.6015625 790 625 c 5
EndSplineSet
EndChar

StartChar: uniFEEC
Encoding: 65260 65260 247
GlifName: uniF_E_E_C_
Width: 991
VWidth: 2551
GlyphClass: 2
Flags: HW
AnchorPoint: "Anchor-7" 576 -637 basechar 0
AnchorPoint: "Anchor-10" 558 1078 basechar 0
LayerCount: 2
Fore
SplineSet
-6 180 m 2
 219 180 l 1
 219 182 l 1
 241.16015625 474.232421875 317.365234375 772 574 772 c 0
 766.076171875 772 849 589.484375 849 433 c 0
 849 347.013671875 823.038085938 247.556640625 778 180 c 1
 844.333007812 180 997 180 997 180 c 2
 1012 180 1020 152 1020 97 c 2
 1020 86 l 2
 1020 52.1240234375 1019.01855469 0 997 0 c 2
 997 0 843 0 776 0 c 1
 822.956054688 -66.9560546875 847 -139.357421875 847 -214 c 0
 847 -365.431640625 752.348632812 -487 594 -487 c 0
 341.71875 -487 219 -192.268554688 219 0 c 1
 -6 0 l 2
 -21 0 -31 29 -31 86 c 2
 -31 97 l 2
 -31 152 -21 180 -6 180 c 2
693 -195 m 0
 693 -61.142578125 618.361328125 0 482 0 c 2
 377 0 l 1
 377 -129.3125 454.30078125 -319 590 -319 c 0
 659 -319 693 -271 693 -195 c 0
692 407 m 0
 692 508.341796875 651.452148438 601 566 601 c 0
 437.713867188 601 394.97265625 348.244140625 377 182 c 1
 377 180 l 1
 379 180 l 1
 498 181 l 2
 628 182 692 258 692 407 c 0
EndSplineSet
EndChar

StartChar: uniFEEE
Encoding: 65262 65262 249
GlifName: uniF_E_E_E_
Width: 916
VWidth: 2551
GlyphClass: 2
Flags: HW
AnchorPoint: "Anchor-7" 394 -619 basechar 0
AnchorPoint: "Anchor-10" 444 1054 basechar 0
LayerCount: 2
Fore
SplineSet
780 0 m 21
 780 -287.586914062 582.303710938 -467 202 -467 c 6
 128 -467 l 5
 128 -291 l 5
 196 -291 l 6
 465 -291 609 -189 610 -2 c 6
 610 0 l 5
 448 0 l 6
 215.99609375 0 99.9931640625 113.02734375 99.9931640625 339.083007812 c 4
 99.9931640625 560.997070312 215.266601562 725 447 725 c 4
 658.916015625 725 780 580 780 348 c 6
 780 180 l 13
 921 180 l 6
 936 180 946 152 946 97 c 6
 946 86 l 6
 946 52.1240234375 943.018554688 0 921 0 c 6
 780 0 l 21
267 343 m 4
 267 235 327 180 447 180 c 6
 611 180 l 5
 611 349 l 6
 611 486 545 553 443 553 c 4
 326 553 267 473 267 343 c 4
EndSplineSet
EndChar

StartChar: uniFEFB
Encoding: 65275 65275 262
GlifName: uniF_E_F_B_
Width: 1145
VWidth: 2551
GlyphClass: 3
Flags: HW
AnchorPoint: "Anchor-9" 248 1443 baselig 1
AnchorPoint: "Anchor-9" 910 1463 baselig 0
AnchorPoint: "Anchor-6" 848 -208 baselig 0
AnchorPoint: "Anchor-6" 243 -215 baselig 1
LayerCount: 2
Fore
SplineSet
159 1285 m 1
 325 1285 l 1
 325 281 l 1
 159 281 l 1
 159 1285 l 1
1002 392 m 2
 1002 131 874 0 620 -0 c 2
 158 -0 l 1
 158 180 l 1
 627 180 l 2
 765 180 835 257 835 410 c 2
 835 1334 l 1
 1002 1334 l 1
 1002 392 l 2
EndSplineSet
PairPos2: "'kern' Horizontal Kerning lookup 15-6" uni0639 dx=-60 dy=0 dh=-60 dv=0 dx=0 dy=0 dh=0 dv=0
PairPos2: "'kern' Horizontal Kerning lookup 15-6" uni063A dx=-60 dy=0 dh=-60 dv=0 dx=0 dy=0 dh=0 dv=0
LCarets2: 1 0
Ligature2: "'rlig' Required Ligatures in Arabic lookup 16 subtable" uniFEDF uniFE8E
EndChar

StartChar: uniFEFC
Encoding: 65276 65276 263
GlifName: uniF_E_F_C_
Width: 1203
VWidth: 2551
GlyphClass: 3
Flags: HW
AnchorPoint: "Anchor-6" 848 -208 baselig 0
AnchorPoint: "Anchor-9" 910 1463 baselig 0
AnchorPoint: "Anchor-6" 243 -215 baselig 1
AnchorPoint: "Anchor-9" 248 1443 baselig 1
LayerCount: 2
Fore
SplineSet
1208 0 m 2
 1183 0 l 2
 1052 0 990 47 917 140 c 2
 915 142 l 1
 914 140 l 2
 842 47 749 0 637 -0 c 2
 158 -0 l 1
 158 180 l 1
 620 180 l 2
 763 180 835 274 835 464 c 2
 835 1335 l 1
 1001 1335 l 1
 1001 463 l 2
 1001 274 1036 180 1185 180 c 2
 1208 180 l 2
 1223 180 1231 152 1231 97 c 2
 1231 86 l 2
 1231 57 1229 35 1225 21 c 0
 1221 7 1215 0 1208 0 c 2
159 1285 m 1
 325 1285 l 1
 325 281 l 1
 159 281 l 1
 159 1285 l 1
EndSplineSet
PairPos2: "'kern' Horizontal Kerning lookup 15-6" uni0639 dx=-60 dy=0 dh=-60 dv=0 dx=0 dy=0 dh=0 dv=0
PairPos2: "'kern' Horizontal Kerning lookup 15-6" uni063A dx=-60 dy=0 dh=-60 dv=0 dx=0 dy=0 dh=0 dv=0
LCarets2: 1 0
Ligature2: "'rlig' Required Ligatures in Arabic lookup 16 subtable" uniFEE0 uniFE8E
EndChar

StartChar: arabic_dot
Encoding: 65536 -1 264
GlifName: arabic_dot
Width: 204
VWidth: 2629
GlyphClass: 2
Flags: HW
LayerCount: 2
Fore
SplineSet
-45 89 m 5
 102 236 l 5
 249 89 l 5
 102 -58 l 5
 -45 89 l 5
EndSplineSet
EndChar

StartChar: arabic_2dots
Encoding: 65537 -1 265
GlifName: arabic_2dots
Width: 527
VWidth: 2629
GlyphClass: 2
Flags: HW
LayerCount: 2
Fore
SplineSet
296 89 m 1
 439 233 l 1
 583 89 l 1
 439 -55 l 1
 296 89 l 1
-56 89 m 1
 88 233 l 1
 231 89 l 1
 88 -55 l 1
 -56 89 l 1
EndSplineSet
EndChar

StartChar: arabic_3dots
Encoding: 65538 -1 266
GlifName: arabic_3dots
Width: 527
VWidth: 2629
GlyphClass: 2
Flags: HW
LayerCount: 2
Fore
SplineSet
128.75 344.540039062 m 5
 263.990234375 478.799804688 l 5
 398.25 344.540039062 l 5
 263.990234375 209.299804688 l 5
 128.75 344.540039062 l 5
300.25 98.4599609375 m 1
 435.490234375 233.700195312 l 1
 570.73046875 98.4599609375 l 1
 435.490234375 -35.7998046875 l 1
 300.25 98.4599609375 l 1
-43.73046875 98.4599609375 m 1
 91.509765625 233.700195312 l 1
 226.75 98.4599609375 l 1
 91.509765625 -35.7998046875 l 1
 -43.73046875 98.4599609375 l 1
EndSplineSet
EndChar

StartChar: arabic_3dots_a
Encoding: 65539 -1 267
GlifName: arabic_3dots_a
Width: 527
VWidth: 2629
GlyphClass: 2
Flags: HW
LayerCount: 2
Fore
SplineSet
128.75 -141.540039062 m 5
 263.990234375 -6.2998046875 l 5
 398.25 -141.540039062 l 5
 263.990234375 -275.799804688 l 5
 128.75 -141.540039062 l 5
300.25 104.540039062 m 1
 435.490234375 238.799804688 l 1
 570.73046875 104.540039062 l 1
 435.490234375 -30.7001953125 l 1
 300.25 104.540039062 l 1
-43.73046875 104.540039062 m 1
 91.509765625 238.799804688 l 1
 226.75 104.540039062 l 1
 91.509765625 -30.7001953125 l 1
 -43.73046875 104.540039062 l 1
EndSplineSet
EndChar

StartChar: uni066E.fina
Encoding: 65540 -1 268
GlifName: uni066E_.fina
Width: 2016
VWidth: 2551
GlyphClass: 2
Flags: HW
AnchorPoint: "Anchor-10" 680 1237 basechar 0
AnchorPoint: "Anchor-7" 680 -218 basechar 0
LayerCount: 2
Fore
SplineSet
1713 136 m 5
 1647.98046875 45.970703125 1561.328125 0 1357 0 c 6
 532 0 l 2
 244 0 100 147 100 442 c 2
 100 643 l 1
 275 643 l 1
 275 443 l 2
 275 268 362 180 535 180 c 2
 1359 180 l 6
 1543 180 1622 233 1622 375 c 6
 1622 633 l 5
 1793 633 l 5
 1793 375 l 6
 1793 245 1848 180 2000 180 c 6
 2022 180 l 6
 2037 180 2045 152 2045 97 c 6
 2045 86 l 6
 2045 29 2037 0 2022 0 c 6
 2001 0 l 6
 1853 0 1771 45 1713 136 c 5
EndSplineSet
EndChar

StartChar: uni06A1.fina
Encoding: 65543 -1 269
GlifName: uni06A_1.fina
Width: 2044
VWidth: 2551
GlyphClass: 2
Flags: HW
AnchorPoint: "Anchor-10" 475 1363 basechar 0
AnchorPoint: "Anchor-7" 600 -270 basechar 0
LayerCount: 2
Fore
SplineSet
1745 430 m 0
 1745 529.390105337 1666.69827886 611 1560 611 c 0
 1453.54419424 611 1374 535.612142759 1374 430 c 0
 1374 330.179679335 1459.72536347 249 1560 249 c 0
 1660.02838872 249 1745 329.65034353 1745 430 c 0
1561 786 m 0
 1757.29718147 786 1913 633.831328085 1913 432 c 0
 1913 320.508630346 1868.54607675 240.728102327 1808 180 c 1
 1888.66666667 180 1969.33333333 180 2050 180 c 0
 2065 180 2073 152 2073 97 c 2
 2073 86 l 2
 2073 29 2066 0 2050 -0 c 2
 1914 -0 l 2
 1802.85695504 0 1666.09615299 22.9038470085 1558 81 c 1
 1451.21482085 24.2148208549 1331.37840409 0 1201 0 c 2
 534 -0 l 2
 246 0 102 147 102 442 c 2
 102 643 l 1
 277 643 l 1
 277 443 l 2
 277 268 364 180 538 180 c 2
 1314 180 l 1
 1252.56124634 241.918338208 1208 320.293776259 1208 431 c 0
 1208 630.65849317 1363.45143869 786 1561 786 c 0
EndSplineSet
EndChar

StartChar: uni06A1.init
Encoding: 65544 -1 270
GlifName: uni06A_1.init
Width: 898
VWidth: 2551
GlyphClass: 2
Flags: HW
AnchorPoint: "Anchor-10" 467 1390 basechar 0
AnchorPoint: "Anchor-7" 502 -207 basechar 0
LayerCount: 2
Fore
SplineSet
-5 180 m 6
 365 180 l 2
 585 180 635 229 635 328 c 2
 635 353 l 1
 581 348 530.607421875 344 482 344 c 0
 245 344 126 428 126 626 c 0
 126 831.341796875 246.78515625 980 466 980 c 0
 687 980 798 852 798 654 c 2
 798 335 l 2
 798 111 673 0 363 0 c 2
 -5 0 l 6
 -20 0 -30 29 -30 86 c 6
 -30 97 l 6
 -30 152 -20 180 -5 180 c 6
468 809 m 0
 353.291015625 809 291 746.392578125 291 637 c 0
 291 537 357 518 490 518 c 0
 539 518 586 522 633 528 c 1
 635 528 l 1
 635 571 635 614 635 657 c 0
 635 749 579 809 468 809 c 0
EndSplineSet
EndChar

StartChar: uni06A1.medi
Encoding: 65545 -1 271
GlifName: uni06A_1.medi
Width: 1022
VWidth: 2551
GlyphClass: 2
Flags: HW
AnchorPoint: "Anchor-10" 535 1174 basechar 0
AnchorPoint: "Anchor-7" 505 -207 basechar 0
LayerCount: 2
Fore
SplineSet
-5 180 m 2
 291 180 l 1
 229.561523438 241.91796875 185 320.293945312 185 431 c 0
 185 630.658203125 340.451171875 786 538 786 c 0
 734.296875 786 890 633.831054688 890 432 c 0
 890 320.508789062 845.545898438 240.728515625 785 180 c 1
 1027 180 l 6
 1042 180 1050 152 1050 97 c 2
 1050 86 l 2
 1050 29 1043 0 1027 0 c 2
 891 0 l 2
 779.857421875 0 643.095703125 22.904296875 535 81 c 1
 428.21484375 24.21484375 308 0 178 0 c 2
 -5 0 l 2
 -20 0 -30 29 -30 86 c 2
 -30 97 l 2
 -30 152 -20 180 -5 180 c 2
722 430 m 0
 722 529.389648438 643.698242188 611 537 611 c 0
 430.543945312 611 351 535.612304688 351 430 c 0
 351 330.1796875 436.725585938 249 537 249 c 0
 637.028320312 249 722 329.650390625 722 430 c 0
EndSplineSet
EndChar

StartChar: uni066F.fina
Encoding: 65546 -1 272
GlifName: uni066F_.fina
Width: 1466
VWidth: 2551
GlyphClass: 2
Flags: HW
AnchorPoint: "Anchor-10" 398 1050 basechar 0
AnchorPoint: "Anchor-7" 515 -700 basechar 0
LayerCount: 2
Fore
SplineSet
744 -270 m 2
 996.940707008 -270 1160.98339844 -206.352539062 1161.00097656 -66 c 2
 1161 0 l 1
 999 0 l 2
 766.99609375 0 650.993164062 113.02734375 650.993164062 339.083007812 c 0
 650.993164062 560.997070312 766.266601562 725 998 725 c 0
 1209.91601562 725 1331 580 1331 348 c 2
 1331 180 l 1
 1472 180 l 2
 1487 180 1496 152 1496 97 c 2
 1496 86 l 2
 1496 58.4462890625 1495.37402344 0 1472 0 c 2
 1331 0 l 1
 1331 -66 l 2
 1331 -357.283880663 1060 -449 744 -449 c 2
 693 -449 l 2
 299 -449 100 -267 100 101 c 2
 100 442 l 1
 274 442 l 1
 274 102 l 2
 274 -146 415 -270 693 -270 c 2
 744 -270 l 2
818 343 m 0
 818 235 878 180 998 180 c 2
 1162 180 l 1
 1162 349 l 2
 1162 486 1096 553 994 553 c 0
 877 553 818 473 818 343 c 0
EndSplineSet
EndChar

StartChar: arabic_gaf_bar
Encoding: 65550 -1 273
GlifName: arabic_gaf_bar
Width: 657
VWidth: 2389
GlyphClass: 2
Flags: HW
LayerCount: 2
Fore
SplineSet
605 1768 m 5
 17 1571 l 1
 17 1681 l 1
 605 1878 l 5
 605 1768 l 5
EndSplineSet
EndChar

StartChar: guillemotleft
Encoding: 171 171 283
GlifName: guillemotleft
Width: 957
VWidth: 2046
Flags: HW
LayerCount: 2
Fore
SplineSet
451 907 m 5
 368.177734375 763.942382812 280 616.870117188 280 457 c 4
 280 295.126953125 368.08203125 148.221679688 451 5 c 1
 299 5 l 1
 197.51953125 157.220703125 120 304.16015625 120 457 c 4
 120 650.052734375 215.836914062 772.551757812 298 907 c 5
 451 907 l 5
827 907 m 5
 750.506835938 774.875 656 651.033203125 656 457 c 4
 656 295.126953125 744.08203125 148.221679688 827 5 c 1
 675 5 l 1
 590.407226562 131.888671875 496 257.659179688 496 457 c 4
 496 650.052734375 591.836914062 772.551757812 674 907 c 5
 827 907 l 5
EndSplineSet
EndChar

StartChar: guillemotright
Encoding: 187 187 284
GlifName: guillemotright
Width: 957
VWidth: 2046
Flags: HW
LayerCount: 2
Fore
SplineSet
506 907 m 5
 659 907 l 5
 755.793945312 748.610351562 837 611.62109375 837 456 c 132
 837 304.084960938 759.53125 157.296875 658 5 c 1
 506 5 l 1
 588.758789062 147.947265625 677 294.411132812 677 456 c 132
 677 617.192382812 589.079101562 763.499023438 506 907 c 5
130 907 m 5
 283 907 l 5
 379.793945312 748.610351562 461 611.62109375 461 456 c 132
 461 304.084960938 383.53125 157.296875 282 5 c 1
 130 5 l 1
 212.758789062 147.947265625 301 294.411132812 301 456 c 132
 301 617.192382812 213.079101562 763.499023438 130 907 c 5
EndSplineSet
EndChar

StartChar: NameMe.302
Encoding: 65562 -1 293
GlifName: N_ameM_e.302
Width: 599
VWidth: 2551
Flags: HW
AnchorPoint: "Anchor-10" 313 1273 basechar 0
AnchorPoint: "Anchor-7" 231 -295 basechar 0
LayerCount: 2
Fore
SplineSet
-5 180 m 2
 28 180 l 2
 163 180 231 265 231 437 c 2
 231 1124 l 1
 397 1124 l 1
 397 436 l 2
 397 296.048290282 446.444589304 180 579 180 c 6
 605 180 l 2
 620 180 628 152 628 97 c 2
 628 86 l 2
 628 29 621 0 605 0 c 2
 569 0 l 2
 458 0 393 46 313 139 c 2
 311 141 l 1
 310 139 l 2
 238 47 145 0 30 0 c 2
 -5 0 l 2
 -20 0 -30 29 -30 86 c 2
 -30 97 l 2
 -30 152 -20 180 -5 180 c 2
EndSplineSet
EndChar

StartChar: NameMe.303
Encoding: 65563 -1 294
GlifName: N_ameM_e.303
Width: 570
VWidth: 2551
Flags: HW
LayerCount: 2
Fore
SplineSet
-5 180 m 6
 67 180 l 2
 196 180 261 244 261 371 c 2
 261 1314 l 1
 428 1314 l 1
 428 367 l 2
 428 122 307 0 66 0 c 2
 -5 0 l 6
 -20 0 -30 29 -30 86 c 6
 -30 97 l 6
 -30 152 -20 180 -5 180 c 6
EndSplineSet
EndChar

StartChar: NameMe.65564
Encoding: 65564 -1 297
GlifName: N_ameM_e.65564
Width: 516
VWidth: 2551
Flags: HW
AnchorPoint: "Anchor-10" 247 1311 basechar 0
AnchorPoint: "Anchor-7" 273 -247 basechar 0
LayerCount: 2
Fore
SplineSet
545 86 m 6
 545 52.1240234375 544.018554688 0 522 0 c 6
 477 0 l 2
 259 0 151 125 151 375 c 2
 151 1133 l 1
 320 1133 l 1
 320 374 l 2
 320 245 373 180 480 180 c 2
 522 180 l 6
 537 180 545 152 545 97 c 6
 545 86 l 6
EndSplineSet
EndChar

StartChar: NameMe.65565
Encoding: 65565 -1 298
GlifName: N_ameM_e.65565
Width: 867
VWidth: 1530
Flags: HW
LayerCount: 2
Fore
SplineSet
285 -132 m 1
 308 -143 345 -148 395 -148 c 2
 447 -148 l 2
 591 -148 662 -118 662 -60 c 2
 662 -54 l 2
 662 -27 642 -13 604 -13 c 2
 512 -13 l 2
 444 -13 410 20 410 86 c 2
 410 124 l 2
 410 212 455 272 543 303 c 4
 574 314 612 320 655 320 c 6
 770 320 l 5
 771 204 l 5
 766 204 l 5
 631 204 l 6
 558 204 520 178 519 127 c 2
 519 97 l 1
 605 97 l 2
 716 97 771 53 771 -34 c 2
 771 -50 l 2
 771 -190 661 -261 442 -261 c 2
 394 -261 l 2
 336 -261 291 -255 258 -244 c 1
 285 -132 l 1
EndSplineSet
EndChar

StartChar: uni060D
Encoding: 1549 1549 299
Width: 828
VWidth: 4036
Flags: HW
LayerCount: 2
Fore
SplineSet
611 1457 m 5
 754 1414 l 5
 198 -211 l 5
 55 -168 l 5
 611 1457 l 5
EndSplineSet
EndChar

StartChar: NameMe.65541
Encoding: 65541 -1 300
Width: 677
VWidth: 2551
Flags: HW
AnchorPoint: "Anchor-10" 400 1218 basechar 0
AnchorPoint: "Anchor-7" 407 -144 basechar 0
LayerCount: 2
Fore
SplineSet
-5 180 m 6
 198 180 l 2
 333 180 400 225 400 373 c 2
 400 667 l 1
 574 667 l 1
 574 372 l 2
 574 124 449 -0 197 -0 c 2
 -5 0 l 6
 -20 0 -30 29 -30 86 c 6
 -30 97 l 6
 -30 152 -20 180 -5 180 c 6
EndSplineSet
EndChar

StartChar: NameMe.65542
Encoding: 65542 -1 301
Width: 807
VWidth: 2551
Flags: HW
AnchorPoint: "Anchor-10" 360 1124 basechar 0
AnchorPoint: "Anchor-7" 339 -149 basechar 0
LayerCount: 2
Fore
SplineSet
-5 180 m 6
 171 180 l 6
 341 180 412 245 412 375 c 6
 412 633 l 5
 583 633 l 5
 583 375 l 6
 583 245 638 180 790 180 c 6
 812 180 l 6
 827 180 835 152 835 97 c 6
 835 86 l 6
 835 29 827 0 812 0 c 6
 791 0 l 6
 645 0 563 45 503 136 c 5
 433 45 334 0 166 0 c 6
 -5 0 l 6
 -20 0 -30 29 -30 86 c 6
 -30 97 l 6
 -30 152 -20 180 -5 180 c 6
EndSplineSet
EndChar

StartChar: uniFBFD.compact
Encoding: 65575 -1 321
Width: 1381
VWidth: 2551
Flags: HW
AnchorPoint: "Anchor-7" 721.902 -650.086 basechar 0
AnchorPoint: "Anchor-10" 681.6 653.22 basechar 0
LayerCount: 2
Fore
SplineSet
1409 86 m 2
 1409 58 1409 0 1386 0 c 2
 1332 0 l 1
 1332 -79 l 2
 1332 -317 1148 -451 783 -451 c 2
 687 -451 l 2
 294 -451 100 -267 100 99 c 2
 100 440 l 1
 275 439 l 1
 275 100 l 2
 275 -147 412 -271 687 -271 c 2
 783 -271 l 2
 966 -271 1159 -241 1159 -72 c 2
 1159 0 l 1
 906 0 l 2
 873 0 848 29 832 88 c 0
 817 144 818 180 837 180 c 2
 1386 180 l 2
 1401 180 1409 152 1409 97 c 2
 1409 86 l 2
EndSplineSet
EndChar

StartChar: uniFECC.compact
Encoding: 65579 -1 324
Width: 1113
VWidth: 2950
Flags: HW
AnchorPoint: "Anchor-7" 585 -237 basechar 0
AnchorPoint: "Anchor-10" 608 1101 basechar 0
LayerCount: 2
Fore
SplineSet
-5 180 m 2
 145 180 l 2
 283 180 361 183 474 200 c 1
 474 200 153.9921875 385.905273438 153.9921875 503.420898438 c 0
 153.9921875 684.671875 356.139648438 752 619 752 c 0
 881.860351562 752 1083.0078125 684.671875 1083.0078125 503.420898438 c 0
 1083.0078125 385.905273438 764 200 764 200 c 1
 846 184 919.510742188 180 1015 180 c 2
 1119 180 l 2
 1134 180 1142 152 1142 97 c 2
 1142 86 l 2
 1142 58.4462890625 1139.37402344 -2.49509825915e-15 1119 0 c 2
 1009 0 l 2
 909.040039062 0 768 15 617 101 c 1
 459 14 328 0 146 0 c 2
 -5 0 l 2
 -20 0 -30 29 -30 86 c 2
 -30 97 l 2
 -30 152 -20 180 -5 180 c 2
618 297 m 1
 618 297 903.0234375 458.825195312 903.0234375 502.098632812 c 0
 903.0234375 551.181640625 780.017578125 582 617 582 c 0
 456.982421875 582 332.9765625 551.181640625 332.9765625 502.098632812 c 0
 332.9765625 458.825195312 618 297 618 297 c 1
EndSplineSet
EndChar

